<svg id="svg" version="1.1" xmlns="http://www.w3.org/2000/svg" xmlns:xlink="http://www.w3.org/1999/xlink" width="400" height="85.71428571428571" viewBox="0, 0, 400,85.71428571428571"><g id="svgg"><path id="path0" d="M3.667 8.000 L 3.667 16.000 44.107 16.000 C 80.069 16.000,84.567 15.972,84.732 15.747 C 84.863 15.568,84.904 13.227,84.872 7.747 L 84.827 -0.000 44.247 -0.000 L 3.667 0.000 3.667 8.000 " stroke="none" fill="#0c7cd4" fill-rule="evenodd"></path><path id="path1" d="M84.910 7.667 C 84.910 11.929,84.932 13.673,84.958 11.542 C 84.985 9.410,84.985 5.923,84.958 3.792 C 84.932 1.660,84.910 3.404,84.910 7.667 M198.333 30.167 C 198.333 30.262,197.833 30.333,197.167 30.333 C 196.500 30.333,196.000 30.405,196.000 30.500 C 196.000 30.592,195.737 30.667,195.417 30.667 C 195.096 30.667,194.833 30.742,194.833 30.833 C 194.833 30.925,194.533 31.000,194.167 31.000 C 193.800 31.000,193.500 31.066,193.500 31.147 C 193.500 31.229,193.088 31.346,192.583 31.409 C 192.079 31.472,191.667 31.594,191.667 31.679 C 191.667 31.764,191.517 31.833,191.333 31.833 C 191.150 31.833,191.000 31.908,191.000 32.000 C 191.000 32.092,190.850 32.167,190.667 32.167 C 190.483 32.167,190.333 32.242,190.333 32.333 C 190.333 32.425,190.108 32.500,189.833 32.500 C 189.558 32.500,189.333 32.575,189.333 32.667 C 189.333 32.758,189.200 32.833,189.037 32.833 C 188.874 32.833,188.632 32.983,188.500 33.167 C 188.368 33.350,188.164 33.500,188.047 33.500 C 187.929 33.500,187.833 33.575,187.833 33.667 C 187.833 33.758,187.711 33.833,187.561 33.833 C 187.412 33.833,187.168 33.971,187.020 34.140 C 186.871 34.309,186.544 34.498,186.292 34.560 C 186.040 34.622,185.833 34.747,185.833 34.837 C 185.833 34.926,185.683 35.000,185.500 35.000 C 185.317 35.000,185.167 35.067,185.167 35.149 C 185.167 35.365,184.231 36.333,184.022 36.333 C 183.775 36.333,181.667 38.384,181.667 38.625 C 181.667 38.734,181.404 39.085,181.083 39.406 C 180.762 39.726,180.500 40.087,180.500 40.208 C 180.500 40.328,180.350 40.535,180.167 40.667 C 179.983 40.799,179.833 40.986,179.833 41.083 C 179.833 41.180,179.683 41.368,179.500 41.500 C 179.317 41.632,179.167 41.857,179.167 42.000 C 179.167 42.143,179.021 42.365,178.843 42.493 C 178.665 42.621,178.471 43.013,178.412 43.363 C 178.352 43.713,178.236 44.000,178.152 44.000 C 178.068 44.000,178.000 44.112,178.000 44.250 C 178.000 44.387,177.925 44.500,177.833 44.500 C 177.742 44.500,177.667 44.725,177.667 45.000 C 177.667 45.275,177.592 45.500,177.500 45.500 C 177.408 45.500,177.333 45.725,177.333 46.000 C 177.333 46.275,177.258 46.500,177.167 46.500 C 177.075 46.500,177.000 46.725,177.000 47.000 C 177.000 47.275,176.925 47.500,176.833 47.500 C 176.742 47.500,176.667 47.688,176.667 47.917 C 176.667 48.146,176.592 48.333,176.500 48.333 C 176.408 48.333,176.333 48.708,176.333 49.167 C 176.333 49.625,176.258 50.000,176.167 50.000 C 176.075 50.000,176.000 50.413,176.000 50.917 C 176.000 51.421,175.925 51.833,175.833 51.833 C 175.728 51.833,175.667 53.056,175.667 55.167 C 175.667 57.278,175.728 58.500,175.833 58.500 C 175.926 58.500,176.000 58.944,176.000 59.500 C 176.000 60.056,176.074 60.500,176.167 60.500 C 176.258 60.500,176.333 60.837,176.333 61.250 C 176.333 61.663,176.408 62.000,176.500 62.000 C 176.592 62.000,176.667 62.300,176.667 62.667 C 176.667 63.033,176.742 63.333,176.833 63.333 C 176.925 63.333,177.000 63.521,177.000 63.750 C 177.000 63.979,177.075 64.167,177.167 64.167 C 177.258 64.167,177.333 64.317,177.333 64.500 C 177.333 64.683,177.408 64.833,177.500 64.833 C 177.592 64.833,177.667 65.058,177.667 65.333 C 177.667 65.608,177.742 65.833,177.833 65.833 C 177.925 65.833,178.000 65.983,178.000 66.167 C 178.000 66.350,178.067 66.500,178.148 66.500 C 178.230 66.500,178.342 66.746,178.399 67.047 C 178.455 67.348,178.651 67.702,178.834 67.834 C 179.017 67.966,179.167 68.207,179.167 68.370 C 179.167 68.533,179.242 68.667,179.333 68.667 C 179.425 68.667,179.500 68.800,179.500 68.963 C 179.500 69.126,179.650 69.368,179.833 69.500 C 180.017 69.632,180.167 69.857,180.167 70.000 C 180.167 70.143,180.324 70.370,180.516 70.505 C 181.229 71.006,181.500 71.296,181.500 71.559 C 181.500 71.910,183.924 74.333,184.275 74.333 C 184.547 74.333,185.167 74.931,185.167 75.192 C 185.167 75.270,185.287 75.333,185.433 75.333 C 185.580 75.333,185.910 75.558,186.167 75.833 C 186.424 76.108,186.754 76.333,186.900 76.333 C 187.047 76.333,187.167 76.408,187.167 76.500 C 187.167 76.592,187.300 76.667,187.463 76.667 C 187.626 76.667,187.868 76.816,187.999 76.999 C 188.131 77.182,188.485 77.378,188.786 77.434 C 189.087 77.491,189.333 77.604,189.333 77.685 C 189.333 77.767,189.483 77.833,189.667 77.833 C 189.850 77.833,190.000 77.908,190.000 78.000 C 190.000 78.092,190.225 78.167,190.500 78.167 C 190.775 78.167,191.000 78.242,191.000 78.333 C 191.000 78.425,191.150 78.500,191.333 78.500 C 191.517 78.500,191.667 78.575,191.667 78.667 C 191.667 78.758,191.854 78.833,192.083 78.833 C 192.313 78.833,192.500 78.908,192.500 79.000 C 192.500 79.092,192.725 79.167,193.000 79.167 C 193.275 79.167,193.500 79.242,193.500 79.333 C 193.500 79.425,193.800 79.500,194.167 79.500 C 194.533 79.500,194.833 79.575,194.833 79.667 C 194.833 79.758,195.096 79.833,195.417 79.833 C 195.737 79.833,196.000 79.908,196.000 80.000 C 196.000 80.093,196.444 80.167,197.000 80.167 C 197.556 80.167,198.000 80.241,198.000 80.333 C 198.000 80.440,199.639 80.500,202.583 80.500 C 205.528 80.500,207.167 80.440,207.167 80.333 C 207.167 80.242,207.579 80.167,208.083 80.167 C 208.588 80.167,209.000 80.092,209.000 80.000 C 209.000 79.908,209.375 79.833,209.833 79.833 C 210.292 79.833,210.667 79.758,210.667 79.667 C 210.667 79.575,210.892 79.500,211.167 79.500 C 211.442 79.500,211.667 79.425,211.667 79.333 C 211.667 79.242,211.854 79.167,212.083 79.167 C 212.313 79.167,212.500 79.092,212.500 79.000 C 212.500 78.908,212.725 78.833,213.000 78.833 C 213.275 78.833,213.500 78.758,213.500 78.667 C 213.500 78.575,213.650 78.500,213.833 78.500 C 214.017 78.500,214.167 78.425,214.167 78.333 C 214.167 78.242,214.354 78.167,214.583 78.167 C 214.813 78.167,215.000 78.092,215.000 78.000 C 215.000 77.908,215.150 77.833,215.333 77.833 C 215.517 77.833,215.667 77.765,215.667 77.681 C 215.667 77.598,215.953 77.481,216.303 77.422 C 216.654 77.363,217.045 77.168,217.174 76.990 C 217.302 76.812,217.524 76.667,217.667 76.667 C 217.810 76.667,218.035 76.517,218.167 76.333 C 218.299 76.150,218.473 76.000,218.553 76.000 C 218.634 76.000,218.910 75.775,219.167 75.500 C 219.424 75.225,219.719 75.000,219.823 75.000 C 220.081 75.000,220.515 74.602,222.458 72.583 C 223.562 71.436,223.471 70.000,222.294 70.000 C 222.173 70.000,221.963 69.839,221.828 69.641 C 221.595 69.300,220.137 67.817,219.600 67.375 C 219.461 67.260,219.248 67.167,219.127 67.167 C 219.006 67.167,218.797 67.005,218.662 66.808 C 218.429 66.467,216.643 64.655,216.101 64.208 C 215.961 64.094,215.748 64.000,215.627 64.000 C 215.506 64.000,215.299 63.850,215.167 63.667 C 214.824 63.192,214.408 63.253,213.745 63.875 C 212.211 65.315,212.002 65.500,211.905 65.500 C 211.847 65.500,211.590 65.725,211.333 66.000 C 211.076 66.275,210.763 66.500,210.637 66.500 C 210.510 66.500,210.299 66.650,210.167 66.833 C 210.035 67.017,209.793 67.167,209.630 67.167 C 209.467 67.167,209.333 67.237,209.333 67.323 C 209.333 67.409,208.996 67.530,208.583 67.592 C 208.171 67.654,207.833 67.771,207.833 67.852 C 207.833 67.934,207.608 68.000,207.333 68.000 C 207.058 68.000,206.833 68.075,206.833 68.167 C 206.833 68.258,206.458 68.333,206.000 68.333 C 205.542 68.333,205.167 68.408,205.167 68.500 C 205.167 68.603,204.333 68.667,203.000 68.667 C 201.667 68.667,200.833 68.603,200.833 68.500 C 200.833 68.408,200.533 68.333,200.167 68.333 C 199.800 68.333,199.500 68.258,199.500 68.167 C 199.500 68.075,199.284 68.000,199.019 68.000 C 198.755 68.000,198.323 67.888,198.061 67.751 C 197.798 67.614,197.452 67.502,197.292 67.501 C 197.131 67.500,197.000 67.425,197.000 67.333 C 197.000 67.242,196.850 67.167,196.667 67.167 C 196.483 67.167,196.333 67.092,196.333 67.000 C 196.333 66.908,196.200 66.833,196.037 66.833 C 195.874 66.833,195.632 66.683,195.500 66.500 C 195.368 66.317,195.200 66.167,195.126 66.167 C 195.053 66.167,194.580 65.754,194.076 65.250 C 193.572 64.746,193.086 64.333,192.996 64.333 C 192.907 64.333,192.833 64.200,192.833 64.037 C 192.833 63.874,192.683 63.632,192.500 63.500 C 192.317 63.368,192.167 63.126,192.167 62.963 C 192.167 62.800,192.106 62.667,192.032 62.667 C 191.864 62.667,191.333 61.485,191.333 61.111 C 191.333 60.958,191.258 60.833,191.167 60.833 C 191.075 60.833,191.000 60.683,191.000 60.500 C 191.000 60.317,190.925 60.167,190.833 60.167 C 190.742 60.167,190.667 59.867,190.667 59.500 C 190.667 59.133,190.592 58.833,190.500 58.833 C 190.408 58.833,190.333 58.496,190.333 58.083 C 190.333 57.671,190.258 57.333,190.167 57.333 C 190.065 57.333,190.000 56.583,190.000 55.417 C 190.000 54.250,190.065 53.500,190.167 53.500 C 190.259 53.500,190.333 53.056,190.333 52.500 C 190.333 51.944,190.407 51.500,190.500 51.500 C 190.592 51.500,190.667 51.237,190.667 50.917 C 190.667 50.596,190.742 50.333,190.833 50.333 C 190.925 50.333,191.000 50.183,191.000 50.000 C 191.000 49.817,191.075 49.667,191.167 49.667 C 191.258 49.667,191.333 49.442,191.333 49.167 C 191.333 48.892,191.408 48.667,191.500 48.667 C 191.592 48.667,191.667 48.514,191.667 48.328 C 191.667 48.142,191.779 47.946,191.917 47.894 C 192.054 47.841,192.167 47.672,192.167 47.519 C 192.167 47.366,192.317 47.132,192.500 47.000 C 192.683 46.868,192.833 46.662,192.833 46.543 C 192.833 46.293,194.578 44.500,194.822 44.500 C 194.912 44.500,195.172 44.313,195.402 44.083 C 195.631 43.854,195.934 43.667,196.076 43.667 C 196.217 43.667,196.333 43.592,196.333 43.500 C 196.333 43.408,196.483 43.333,196.667 43.333 C 196.850 43.333,197.000 43.258,197.000 43.167 C 197.000 43.075,197.150 43.000,197.333 43.000 C 197.517 43.000,197.667 42.925,197.667 42.833 C 197.667 42.742,197.854 42.667,198.083 42.667 C 198.313 42.667,198.500 42.592,198.500 42.500 C 198.500 42.408,198.725 42.333,199.000 42.333 C 199.275 42.333,199.500 42.258,199.500 42.167 C 199.500 42.075,199.875 42.000,200.333 42.000 C 200.792 42.000,201.167 41.925,201.167 41.833 C 201.167 41.731,201.944 41.667,203.167 41.667 C 204.389 41.667,205.167 41.731,205.167 41.833 C 205.167 41.925,205.467 42.000,205.833 42.000 C 206.200 42.000,206.500 42.075,206.500 42.167 C 206.500 42.258,206.800 42.333,207.167 42.333 C 207.533 42.333,207.833 42.408,207.833 42.500 C 207.833 42.592,207.946 42.667,208.083 42.667 C 208.221 42.667,208.333 42.742,208.333 42.833 C 208.333 42.925,208.483 43.000,208.667 43.000 C 208.850 43.000,209.000 43.075,209.000 43.167 C 209.000 43.258,209.150 43.333,209.333 43.333 C 209.517 43.333,209.667 43.408,209.667 43.500 C 209.667 43.592,209.817 43.667,210.000 43.667 C 210.183 43.667,210.333 43.742,210.333 43.833 C 210.333 43.925,210.483 44.000,210.667 44.000 C 210.850 44.000,211.000 44.070,211.000 44.155 C 211.000 44.241,211.146 44.357,211.325 44.414 C 211.503 44.471,211.696 44.663,211.753 44.842 C 211.809 45.021,211.965 45.167,212.098 45.167 C 212.420 45.167,214.167 46.923,214.167 47.246 C 214.167 47.621,214.794 47.555,214.917 47.167 C 214.975 46.983,215.130 46.833,215.261 46.833 C 215.393 46.833,216.218 46.121,217.096 45.250 C 217.974 44.379,218.763 43.667,218.850 43.667 C 218.937 43.667,219.644 43.029,220.421 42.250 C 221.199 41.471,221.912 40.833,222.006 40.833 C 223.072 40.833,223.663 38.845,222.799 38.167 C 222.507 37.938,222.133 37.600,221.967 37.417 C 220.764 36.086,219.995 35.333,219.837 35.333 C 219.735 35.333,219.464 35.146,219.235 34.917 C 219.006 34.688,218.726 34.500,218.613 34.500 C 218.499 34.500,218.299 34.350,218.167 34.167 C 218.035 33.983,217.793 33.833,217.630 33.833 C 217.467 33.833,217.333 33.758,217.333 33.667 C 217.333 33.575,217.200 33.500,217.037 33.500 C 216.874 33.500,216.632 33.350,216.500 33.167 C 216.368 32.983,216.126 32.833,215.963 32.833 C 215.800 32.833,215.667 32.758,215.667 32.667 C 215.667 32.575,215.479 32.500,215.250 32.500 C 215.021 32.500,214.833 32.425,214.833 32.333 C 214.833 32.242,214.683 32.167,214.500 32.167 C 214.317 32.167,214.167 32.092,214.167 32.000 C 214.167 31.908,214.017 31.833,213.833 31.833 C 213.650 31.833,213.500 31.767,213.500 31.686 C 213.500 31.605,213.088 31.487,212.583 31.424 C 212.079 31.361,211.667 31.240,211.667 31.155 C 211.667 31.070,211.367 31.000,211.000 31.000 C 210.633 31.000,210.333 30.925,210.333 30.833 C 210.333 30.742,210.033 30.667,209.667 30.667 C 209.300 30.667,209.000 30.592,209.000 30.500 C 209.000 30.406,208.528 30.333,207.917 30.333 C 207.306 30.333,206.833 30.261,206.833 30.167 C 206.833 30.060,205.306 30.000,202.583 30.000 C 199.861 30.000,198.333 30.060,198.333 30.167 M373.500 30.167 C 373.500 30.261,373.028 30.333,372.417 30.333 C 371.806 30.333,371.333 30.406,371.333 30.500 C 371.333 30.592,370.958 30.667,370.500 30.667 C 370.042 30.667,369.667 30.742,369.667 30.833 C 369.667 30.925,369.442 31.000,369.167 31.000 C 368.892 31.000,368.667 31.070,368.667 31.155 C 368.667 31.240,368.254 31.361,367.750 31.424 C 367.246 31.487,366.833 31.605,366.833 31.686 C 366.833 31.767,366.683 31.833,366.500 31.833 C 366.317 31.833,366.167 31.908,366.167 32.000 C 366.167 32.092,365.942 32.167,365.667 32.167 C 365.392 32.167,365.167 32.242,365.167 32.333 C 365.167 32.425,365.071 32.500,364.953 32.500 C 364.836 32.500,364.632 32.650,364.500 32.833 C 364.368 33.017,364.126 33.167,363.963 33.167 C 363.800 33.167,363.667 33.242,363.667 33.333 C 363.667 33.425,363.547 33.500,363.400 33.500 C 363.254 33.500,362.924 33.725,362.667 34.000 C 362.410 34.275,362.112 34.500,362.004 34.500 C 361.744 34.500,359.500 36.777,359.498 37.043 C 359.498 37.157,359.275 37.425,359.003 37.640 C 358.703 37.877,358.468 38.252,358.403 38.598 C 358.344 38.911,358.230 39.167,358.148 39.167 C 358.067 39.167,358.000 39.317,358.000 39.500 C 358.000 39.683,357.925 39.833,357.833 39.833 C 357.742 39.833,357.667 40.058,357.667 40.333 C 357.667 40.608,357.592 40.833,357.500 40.833 C 357.408 40.833,357.333 41.021,357.333 41.250 C 357.333 41.479,357.258 41.667,357.167 41.667 C 357.075 41.667,357.000 41.967,357.000 42.333 C 357.000 42.700,356.925 43.000,356.833 43.000 C 356.729 43.000,356.667 44.056,356.667 45.833 C 356.667 47.611,356.729 48.667,356.833 48.667 C 356.925 48.667,357.000 49.042,357.000 49.500 C 357.000 49.958,357.075 50.333,357.167 50.333 C 357.258 50.333,357.333 50.483,357.333 50.667 C 357.333 50.850,357.408 51.000,357.500 51.000 C 357.592 51.000,357.667 51.188,357.667 51.417 C 357.667 51.646,357.742 51.833,357.833 51.833 C 357.925 51.833,358.000 51.951,358.000 52.095 C 358.000 52.239,358.113 52.470,358.250 52.607 C 358.387 52.745,358.502 52.983,358.505 53.137 C 358.508 53.291,358.739 53.604,359.018 53.833 C 359.297 54.063,360.006 54.719,360.593 55.292 C 361.180 55.865,361.720 56.333,361.793 56.333 C 361.867 56.333,362.035 56.483,362.167 56.667 C 362.299 56.850,362.540 57.000,362.703 57.000 C 362.867 57.000,363.000 57.075,363.000 57.167 C 363.000 57.258,363.118 57.333,363.262 57.333 C 363.406 57.333,363.636 57.446,363.774 57.583 C 363.911 57.721,364.243 57.833,364.512 57.833 C 364.780 57.833,365.000 57.908,365.000 58.000 C 365.000 58.092,365.113 58.167,365.250 58.167 C 365.387 58.167,365.500 58.242,365.500 58.333 C 365.500 58.425,365.725 58.500,366.000 58.500 C 366.275 58.500,366.500 58.575,366.500 58.667 C 366.500 58.758,366.725 58.833,367.000 58.833 C 367.275 58.833,367.500 58.908,367.500 59.000 C 367.500 59.092,367.688 59.167,367.917 59.167 C 368.146 59.167,368.333 59.242,368.333 59.333 C 368.333 59.425,368.633 59.500,369.000 59.500 C 369.367 59.500,369.667 59.575,369.667 59.667 C 369.667 59.758,369.967 59.833,370.333 59.833 C 370.700 59.833,371.000 59.908,371.000 60.000 C 371.000 60.092,371.262 60.167,371.583 60.167 C 371.904 60.167,372.167 60.242,372.167 60.333 C 372.167 60.425,372.467 60.500,372.833 60.500 C 373.200 60.500,373.500 60.568,373.500 60.652 C 373.500 60.735,374.137 60.857,374.917 60.921 C 375.696 60.986,376.333 61.106,376.333 61.186 C 376.333 61.267,376.633 61.333,377.000 61.333 C 377.367 61.333,377.667 61.408,377.667 61.500 C 377.667 61.592,377.854 61.667,378.083 61.667 C 378.313 61.667,378.500 61.742,378.500 61.833 C 378.500 61.925,378.800 62.000,379.167 62.000 C 379.533 62.000,379.833 62.075,379.833 62.167 C 379.833 62.258,380.058 62.333,380.333 62.333 C 380.608 62.333,380.833 62.408,380.833 62.500 C 380.833 62.592,380.983 62.667,381.167 62.667 C 381.350 62.667,381.500 62.742,381.500 62.833 C 381.500 62.925,381.613 63.000,381.750 63.000 C 381.887 63.000,382.000 63.075,382.000 63.167 C 382.000 63.258,382.116 63.333,382.258 63.333 C 382.399 63.333,382.703 63.521,382.932 63.750 C 383.161 63.979,383.420 64.167,383.508 64.167 C 383.595 64.167,383.667 64.317,383.667 64.500 C 383.667 64.683,383.742 64.833,383.833 64.833 C 383.926 64.833,384.000 65.278,384.000 65.833 C 384.000 66.389,383.926 66.833,383.833 66.833 C 383.742 66.833,383.667 66.978,383.667 67.155 C 383.667 67.333,383.517 67.525,383.333 67.583 C 383.150 67.642,383.000 67.759,383.000 67.845 C 383.000 67.930,382.850 68.000,382.667 68.000 C 382.483 68.000,382.333 68.061,382.333 68.136 C 382.333 68.210,382.071 68.374,381.750 68.500 C 381.429 68.626,381.167 68.790,381.167 68.864 C 381.167 68.939,380.792 69.000,380.333 69.000 C 379.875 69.000,379.500 69.075,379.500 69.167 C 379.500 69.272,378.333 69.333,376.333 69.333 C 374.333 69.333,373.167 69.272,373.167 69.167 C 373.167 69.075,372.754 69.000,372.250 69.000 C 371.746 69.000,371.333 68.925,371.333 68.833 C 371.333 68.742,370.958 68.667,370.500 68.667 C 370.042 68.667,369.667 68.592,369.667 68.500 C 369.667 68.408,369.442 68.333,369.167 68.333 C 368.892 68.333,368.667 68.258,368.667 68.167 C 368.667 68.075,368.404 68.000,368.083 68.000 C 367.762 68.000,367.500 67.928,367.500 67.839 C 367.500 67.751,367.125 67.628,366.667 67.568 C 366.208 67.507,365.833 67.392,365.833 67.312 C 365.833 67.232,365.646 67.167,365.417 67.167 C 365.188 67.167,365.000 67.092,365.000 67.000 C 365.000 66.908,364.850 66.833,364.667 66.833 C 364.483 66.833,364.333 66.758,364.333 66.667 C 364.333 66.575,364.183 66.500,364.000 66.500 C 363.817 66.500,363.667 66.425,363.667 66.333 C 363.667 66.242,363.517 66.167,363.333 66.167 C 363.150 66.167,363.000 66.092,363.000 66.000 C 363.000 65.908,362.850 65.833,362.667 65.833 C 362.483 65.833,362.333 65.758,362.333 65.667 C 362.333 65.575,362.188 65.500,362.011 65.500 C 361.834 65.500,361.642 65.350,361.583 65.167 C 361.525 64.983,361.333 64.833,361.155 64.833 C 360.978 64.833,360.833 64.758,360.833 64.667 C 360.833 64.575,360.683 64.500,360.500 64.500 C 360.278 64.500,360.167 64.611,360.167 64.833 C 360.167 65.017,360.092 65.167,360.000 65.167 C 359.908 65.167,359.833 65.392,359.833 65.667 C 359.833 65.942,359.758 66.167,359.667 66.167 C 359.575 66.167,359.500 66.317,359.500 66.500 C 359.500 66.683,359.425 66.833,359.333 66.833 C 359.242 66.833,359.167 66.983,359.167 67.167 C 359.167 67.350,359.092 67.500,359.000 67.500 C 358.908 67.500,358.833 67.612,358.833 67.750 C 358.833 67.887,358.761 68.000,358.672 68.000 C 358.584 68.000,358.462 68.375,358.401 68.833 C 358.340 69.292,358.225 69.667,358.145 69.667 C 358.065 69.667,358.000 69.817,358.000 70.000 C 358.000 70.183,357.925 70.333,357.833 70.333 C 357.742 70.333,357.667 70.446,357.667 70.583 C 357.667 70.721,357.592 70.833,357.500 70.833 C 357.408 70.833,357.333 70.983,357.333 71.167 C 357.333 71.350,357.258 71.500,357.167 71.500 C 357.075 71.500,357.000 71.725,357.000 72.000 C 357.000 72.275,356.925 72.500,356.833 72.500 C 356.742 72.500,356.667 72.650,356.667 72.833 C 356.667 73.017,356.592 73.167,356.500 73.167 C 356.408 73.167,356.333 73.317,356.333 73.500 C 356.333 73.683,356.258 73.833,356.167 73.833 C 356.075 73.833,356.000 73.946,356.000 74.083 C 356.000 74.221,355.925 74.333,355.833 74.333 C 355.742 74.333,355.667 74.558,355.667 74.833 C 355.667 75.202,355.745 75.333,355.963 75.333 C 356.126 75.333,356.368 75.483,356.500 75.667 C 356.632 75.850,356.874 76.000,357.037 76.000 C 357.200 76.000,357.333 76.075,357.333 76.167 C 357.333 76.258,357.483 76.333,357.667 76.333 C 357.850 76.333,358.000 76.408,358.000 76.500 C 358.000 76.592,358.113 76.667,358.250 76.667 C 358.387 76.667,358.500 76.742,358.500 76.833 C 358.500 76.925,358.650 77.000,358.833 77.000 C 359.017 77.000,359.167 77.068,359.167 77.152 C 359.167 77.236,359.467 77.355,359.833 77.417 C 360.200 77.479,360.500 77.598,360.500 77.681 C 360.500 77.765,360.725 77.833,361.000 77.833 C 361.275 77.833,361.500 77.908,361.500 78.000 C 361.500 78.092,361.688 78.167,361.917 78.167 C 362.146 78.167,362.333 78.242,362.333 78.333 C 362.333 78.425,362.558 78.500,362.833 78.500 C 363.108 78.500,363.333 78.575,363.333 78.667 C 363.333 78.758,363.558 78.833,363.833 78.833 C 364.108 78.833,364.333 78.908,364.333 79.000 C 364.333 79.092,364.596 79.167,364.917 79.167 C 365.238 79.167,365.500 79.242,365.500 79.333 C 365.500 79.425,365.875 79.500,366.333 79.500 C 366.792 79.500,367.167 79.575,367.167 79.667 C 367.167 79.758,367.504 79.833,367.917 79.833 C 368.329 79.833,368.667 79.908,368.667 80.000 C 368.667 80.095,369.167 80.167,369.833 80.167 C 370.500 80.167,371.000 80.238,371.000 80.333 C 371.000 80.441,372.830 80.500,376.157 80.500 C 379.415 80.500,381.352 80.439,381.417 80.333 C 381.473 80.242,381.928 80.167,382.427 80.167 C 382.925 80.167,383.333 80.092,383.333 80.000 C 383.333 79.908,383.708 79.833,384.167 79.833 C 384.625 79.833,385.000 79.758,385.000 79.667 C 385.000 79.575,385.188 79.500,385.417 79.500 C 385.646 79.500,385.833 79.425,385.833 79.333 C 385.833 79.242,386.058 79.167,386.333 79.167 C 386.608 79.167,386.833 79.092,386.833 79.000 C 386.833 78.908,387.058 78.833,387.333 78.833 C 387.608 78.833,387.833 78.758,387.833 78.667 C 387.833 78.575,387.946 78.500,388.083 78.500 C 388.221 78.500,388.333 78.425,388.333 78.333 C 388.333 78.242,388.483 78.167,388.667 78.167 C 388.850 78.167,389.000 78.092,389.000 78.000 C 389.000 77.908,389.150 77.833,389.333 77.833 C 389.517 77.833,389.667 77.765,389.667 77.681 C 389.667 77.598,389.953 77.481,390.303 77.422 C 390.654 77.363,391.045 77.168,391.174 76.990 C 391.302 76.812,391.486 76.667,391.583 76.667 C 391.680 76.667,391.868 76.517,392.000 76.333 C 392.132 76.150,392.334 76.000,392.448 76.000 C 392.742 76.000,395.000 73.773,395.000 73.482 C 395.000 73.349,395.150 73.132,395.333 73.000 C 395.517 72.868,395.667 72.643,395.667 72.500 C 395.667 72.357,395.817 72.132,396.000 72.000 C 396.183 71.868,396.333 71.626,396.333 71.463 C 396.333 71.300,396.408 71.167,396.500 71.167 C 396.592 71.167,396.667 71.054,396.667 70.917 C 396.667 70.779,396.742 70.667,396.833 70.667 C 396.925 70.667,397.000 70.442,397.000 70.167 C 397.000 69.892,397.075 69.667,397.167 69.667 C 397.258 69.667,397.333 69.442,397.333 69.167 C 397.333 68.892,397.408 68.667,397.500 68.667 C 397.592 68.667,397.667 68.404,397.667 68.083 C 397.667 67.762,397.742 67.500,397.833 67.500 C 397.938 67.500,398.000 66.472,398.000 64.750 C 398.000 63.028,397.938 62.000,397.833 62.000 C 397.742 62.000,397.667 61.663,397.667 61.250 C 397.667 60.837,397.592 60.500,397.500 60.500 C 397.408 60.500,397.333 60.275,397.333 60.000 C 397.333 59.725,397.258 59.500,397.167 59.500 C 397.075 59.500,397.000 59.350,397.000 59.167 C 397.000 58.983,396.925 58.833,396.833 58.833 C 396.742 58.833,396.667 58.683,396.667 58.500 C 396.667 58.317,396.592 58.167,396.500 58.167 C 396.408 58.167,396.333 58.086,396.333 57.987 C 396.333 57.888,396.033 57.519,395.667 57.167 C 395.300 56.814,395.000 56.419,395.000 56.289 C 395.000 55.988,394.440 55.333,394.183 55.333 C 394.076 55.333,393.726 55.071,393.406 54.750 C 393.085 54.429,392.691 54.167,392.531 54.167 C 392.371 54.167,392.132 54.017,392.000 53.833 C 391.868 53.650,391.664 53.500,391.547 53.500 C 391.429 53.500,391.333 53.425,391.333 53.333 C 391.333 53.242,391.183 53.167,391.000 53.167 C 390.817 53.167,390.667 53.092,390.667 53.000 C 390.667 52.908,390.517 52.833,390.333 52.833 C 390.150 52.833,390.000 52.758,390.000 52.667 C 390.000 52.575,389.850 52.500,389.667 52.500 C 389.483 52.500,389.333 52.425,389.333 52.333 C 389.333 52.242,389.108 52.167,388.833 52.167 C 388.558 52.167,388.333 52.092,388.333 52.000 C 388.333 51.908,388.146 51.833,387.917 51.833 C 387.688 51.833,387.500 51.758,387.500 51.667 C 387.500 51.575,387.275 51.500,387.000 51.500 C 386.725 51.500,386.500 51.431,386.500 51.347 C 386.500 51.262,386.012 51.141,385.417 51.077 C 384.821 51.013,384.333 50.895,384.333 50.814 C 384.333 50.733,384.033 50.667,383.667 50.667 C 383.300 50.667,383.000 50.592,383.000 50.500 C 383.000 50.408,382.700 50.333,382.333 50.333 C 381.967 50.333,381.667 50.258,381.667 50.167 C 381.667 50.075,381.404 50.000,381.083 50.000 C 380.762 50.000,380.500 49.925,380.500 49.833 C 380.500 49.742,380.125 49.667,379.667 49.667 C 379.208 49.667,378.833 49.592,378.833 49.500 C 378.833 49.408,378.571 49.333,378.250 49.333 C 377.929 49.333,377.667 49.258,377.667 49.167 C 377.667 49.075,377.367 49.000,377.000 49.000 C 376.633 49.000,376.333 48.925,376.333 48.833 C 376.333 48.742,376.033 48.667,375.667 48.667 C 375.300 48.667,375.000 48.592,375.000 48.500 C 375.000 48.408,374.813 48.333,374.583 48.333 C 374.354 48.333,374.167 48.268,374.167 48.188 C 374.167 48.108,373.792 47.993,373.333 47.932 C 372.875 47.872,372.500 47.749,372.500 47.661 C 372.500 47.572,372.350 47.500,372.167 47.500 C 371.983 47.500,371.833 47.428,371.833 47.341 C 371.833 47.253,371.646 46.994,371.417 46.765 C 371.188 46.536,371.000 46.233,371.000 46.091 C 371.000 45.949,370.925 45.833,370.833 45.833 C 370.742 45.833,370.667 45.496,370.667 45.083 C 370.667 44.671,370.742 44.333,370.833 44.333 C 370.925 44.333,371.000 44.183,371.000 44.000 C 371.000 43.817,371.075 43.667,371.167 43.667 C 371.258 43.667,371.333 43.517,371.333 43.333 C 371.333 43.150,371.403 43.000,371.489 43.000 C 371.574 43.000,371.692 42.850,371.750 42.667 C 371.808 42.483,372.001 42.333,372.178 42.333 C 372.355 42.333,372.500 42.258,372.500 42.167 C 372.500 42.075,372.650 42.000,372.833 42.000 C 373.017 42.000,373.167 41.925,373.167 41.833 C 373.167 41.742,373.310 41.667,373.486 41.667 C 373.662 41.667,373.837 41.573,373.875 41.458 C 373.928 41.299,374.954 41.250,378.250 41.250 C 381.546 41.250,382.572 41.299,382.625 41.458 C 382.668 41.587,383.006 41.667,383.514 41.667 C 383.965 41.667,384.333 41.742,384.333 41.833 C 384.333 41.925,384.521 42.000,384.750 42.000 C 384.979 42.000,385.167 42.075,385.167 42.167 C 385.167 42.258,385.392 42.333,385.667 42.333 C 385.942 42.333,386.167 42.408,386.167 42.500 C 386.167 42.592,386.392 42.667,386.667 42.667 C 386.942 42.667,387.167 42.742,387.167 42.833 C 387.167 42.925,387.317 43.000,387.500 43.000 C 387.683 43.000,387.833 43.075,387.833 43.167 C 387.833 43.258,388.021 43.333,388.250 43.333 C 388.479 43.333,388.667 43.408,388.667 43.500 C 388.667 43.592,388.817 43.667,389.000 43.667 C 389.183 43.667,389.333 43.742,389.333 43.833 C 389.333 43.925,389.477 44.000,389.653 44.000 C 389.828 44.000,389.998 44.076,390.029 44.170 C 390.135 44.489,391.833 44.587,391.833 44.273 C 391.833 44.123,391.908 44.000,392.000 44.000 C 392.092 44.000,392.167 43.850,392.167 43.667 C 392.167 43.483,392.242 43.333,392.333 43.333 C 392.425 43.333,392.500 43.108,392.500 42.833 C 392.500 42.558,392.575 42.333,392.667 42.333 C 392.758 42.333,392.833 42.183,392.833 42.000 C 392.833 41.817,392.908 41.667,393.000 41.667 C 393.092 41.667,393.167 41.554,393.167 41.417 C 393.167 41.279,393.242 41.167,393.333 41.167 C 393.425 41.167,393.500 40.942,393.500 40.667 C 393.500 40.392,393.575 40.167,393.667 40.167 C 393.758 40.167,393.833 40.017,393.833 39.833 C 393.833 39.650,393.908 39.500,394.000 39.500 C 394.092 39.500,394.167 39.275,394.167 39.000 C 394.167 38.725,394.242 38.500,394.333 38.500 C 394.425 38.500,394.500 38.350,394.500 38.167 C 394.500 37.983,394.566 37.833,394.648 37.833 C 394.729 37.833,394.846 37.496,394.908 37.083 C 394.970 36.671,395.091 36.333,395.177 36.333 C 395.263 36.333,395.333 36.183,395.333 36.000 C 395.333 35.817,395.408 35.667,395.500 35.667 C 395.592 35.667,395.667 35.442,395.667 35.167 C 395.667 34.892,395.742 34.667,395.833 34.667 C 395.925 34.667,396.000 34.586,396.000 34.488 C 396.000 34.223,395.561 33.833,395.262 33.833 C 395.118 33.833,395.000 33.758,395.000 33.667 C 395.000 33.575,394.887 33.500,394.750 33.500 C 394.613 33.500,394.500 33.425,394.500 33.333 C 394.500 33.242,394.350 33.167,394.167 33.167 C 393.983 33.167,393.833 33.092,393.833 33.000 C 393.833 32.908,393.683 32.833,393.500 32.833 C 393.317 32.833,393.167 32.758,393.167 32.667 C 393.167 32.575,392.942 32.500,392.667 32.500 C 392.392 32.500,392.166 32.444,392.165 32.375 C 392.164 32.206,391.339 31.833,390.967 31.833 C 390.802 31.833,390.667 31.763,390.667 31.677 C 390.667 31.591,390.142 31.468,389.500 31.405 C 388.858 31.342,388.333 31.225,388.333 31.145 C 388.333 31.065,388.071 31.000,387.750 31.000 C 387.429 31.000,387.167 30.925,387.167 30.833 C 387.167 30.741,386.722 30.667,386.167 30.667 C 385.611 30.667,385.167 30.593,385.167 30.500 C 385.167 30.406,384.694 30.333,384.083 30.333 C 383.472 30.333,383.000 30.261,383.000 30.167 C 383.000 30.059,381.306 30.000,378.250 30.000 C 375.194 30.000,373.500 30.059,373.500 30.167 M4.667 55.250 L 4.667 79.500 18.583 79.500 C 27.750 79.500,32.500 79.443,32.500 79.333 C 32.500 79.241,32.944 79.167,33.500 79.167 C 34.056 79.167,34.500 79.093,34.500 79.000 C 34.500 78.908,34.837 78.833,35.250 78.833 C 35.662 78.833,36.000 78.758,36.000 78.667 C 36.000 78.575,36.300 78.500,36.667 78.500 C 37.033 78.500,37.333 78.425,37.333 78.333 C 37.333 78.242,37.558 78.167,37.833 78.167 C 38.108 78.167,38.333 78.092,38.333 78.000 C 38.333 77.908,38.521 77.833,38.750 77.833 C 38.979 77.833,39.167 77.768,39.167 77.688 C 39.167 77.608,39.542 77.493,40.000 77.432 C 40.458 77.372,40.833 77.249,40.833 77.161 C 40.833 77.072,40.983 77.000,41.167 77.000 C 41.350 77.000,41.500 76.925,41.500 76.833 C 41.500 76.742,41.612 76.667,41.750 76.667 C 41.887 76.667,42.000 76.592,42.000 76.500 C 42.000 76.408,42.150 76.333,42.333 76.333 C 42.517 76.333,42.667 76.258,42.667 76.167 C 42.667 76.075,42.817 76.000,43.000 76.000 C 43.183 76.000,43.333 75.925,43.333 75.833 C 43.333 75.742,43.483 75.667,43.667 75.667 C 43.850 75.667,44.000 75.592,44.000 75.500 C 44.000 75.408,44.122 75.333,44.272 75.333 C 44.546 75.333,45.167 74.737,45.167 74.474 C 45.167 74.397,45.313 74.333,45.492 74.333 C 45.672 74.333,46.006 74.146,46.235 73.917 C 46.464 73.688,46.749 73.497,46.867 73.492 C 46.986 73.488,47.346 73.185,47.667 72.818 C 47.987 72.451,48.569 71.819,48.958 71.413 C 49.348 71.008,49.667 70.629,49.667 70.571 C 49.667 70.514,49.892 70.257,50.167 70.000 C 50.442 69.743,50.667 69.430,50.667 69.303 C 50.667 69.177,50.817 68.965,51.000 68.833 C 51.183 68.701,51.333 68.460,51.333 68.297 C 51.333 68.133,51.407 68.000,51.497 68.000 C 51.587 68.000,51.707 67.813,51.765 67.583 C 51.822 67.354,51.936 67.167,52.018 67.167 C 52.100 67.167,52.167 67.017,52.167 66.833 C 52.167 66.650,52.242 66.500,52.333 66.500 C 52.425 66.500,52.500 66.350,52.500 66.167 C 52.500 65.983,52.575 65.833,52.667 65.833 C 52.758 65.833,52.833 65.683,52.833 65.500 C 52.833 65.317,52.908 65.167,53.000 65.167 C 53.092 65.167,53.167 64.942,53.167 64.667 C 53.167 64.392,53.242 64.167,53.333 64.167 C 53.425 64.167,53.500 63.979,53.500 63.750 C 53.500 63.521,53.575 63.333,53.667 63.333 C 53.758 63.333,53.833 63.108,53.833 62.833 C 53.833 62.558,53.908 62.333,54.000 62.333 C 54.092 62.333,54.167 61.996,54.167 61.583 C 54.167 61.171,54.242 60.833,54.333 60.833 C 54.426 60.833,54.500 60.389,54.500 59.833 C 54.500 59.278,54.574 58.833,54.667 58.833 C 54.773 58.833,54.833 57.500,54.833 55.167 C 54.833 52.833,54.773 51.500,54.667 51.500 C 54.575 51.500,54.500 51.087,54.500 50.583 C 54.500 50.079,54.425 49.667,54.333 49.667 C 54.242 49.667,54.167 49.292,54.167 48.833 C 54.167 48.375,54.092 48.000,54.000 48.000 C 53.908 48.000,53.833 47.813,53.833 47.583 C 53.833 47.354,53.758 47.167,53.667 47.167 C 53.575 47.167,53.500 46.942,53.500 46.667 C 53.500 46.392,53.425 46.167,53.333 46.167 C 53.242 46.167,53.167 46.017,53.167 45.833 C 53.167 45.650,53.092 45.500,53.000 45.500 C 52.908 45.500,52.833 45.275,52.833 45.000 C 52.833 44.725,52.758 44.500,52.667 44.500 C 52.575 44.500,52.500 44.387,52.500 44.250 C 52.500 44.112,52.425 44.000,52.333 44.000 C 52.242 44.000,52.167 43.850,52.167 43.667 C 52.167 43.483,52.092 43.333,52.000 43.333 C 51.908 43.333,51.833 43.189,51.833 43.012 C 51.833 42.835,51.721 42.578,51.583 42.440 C 51.446 42.303,51.333 42.089,51.333 41.965 C 51.333 41.842,51.183 41.632,51.000 41.500 C 50.817 41.368,50.667 41.195,50.667 41.117 C 50.667 41.038,50.367 40.686,50.000 40.333 C 49.633 39.981,49.333 39.610,49.333 39.509 C 49.333 39.256,47.427 37.333,47.176 37.333 C 47.065 37.333,46.686 37.033,46.333 36.667 C 45.981 36.300,45.592 36.000,45.470 36.000 C 45.347 36.000,45.153 35.850,45.039 35.667 C 44.924 35.483,44.735 35.333,44.619 35.333 C 44.502 35.333,44.302 35.188,44.174 35.010 C 44.045 34.832,43.654 34.637,43.303 34.578 C 42.953 34.519,42.667 34.402,42.667 34.319 C 42.667 34.235,42.517 34.167,42.333 34.167 C 42.150 34.167,42.000 34.092,42.000 34.000 C 42.000 33.908,41.887 33.833,41.750 33.833 C 41.612 33.833,41.500 33.758,41.500 33.667 C 41.500 33.575,41.350 33.500,41.167 33.500 C 40.983 33.500,40.833 33.425,40.833 33.333 C 40.833 33.242,40.683 33.167,40.500 33.167 C 40.317 33.167,40.167 33.092,40.167 33.000 C 40.167 32.908,39.942 32.833,39.667 32.833 C 39.392 32.833,39.167 32.758,39.167 32.667 C 39.167 32.575,38.979 32.500,38.750 32.500 C 38.521 32.500,38.333 32.425,38.333 32.333 C 38.333 32.242,38.108 32.167,37.833 32.167 C 37.558 32.167,37.333 32.092,37.333 32.000 C 37.333 31.908,37.040 31.833,36.681 31.833 C 36.322 31.833,36.003 31.761,35.972 31.672 C 35.942 31.583,35.073 31.459,34.042 31.397 C 33.010 31.334,32.167 31.219,32.167 31.142 C 32.167 31.064,25.979 31.000,18.417 31.000 L 4.667 31.000 4.667 55.250 M61.500 55.250 L 61.500 79.500 68.000 79.500 L 74.500 79.500 74.500 67.583 C 74.500 59.750,74.557 55.667,74.667 55.667 C 74.758 55.667,74.833 55.807,74.833 55.980 C 74.833 56.152,74.946 56.386,75.083 56.500 C 75.221 56.614,75.333 56.848,75.333 57.020 C 75.333 57.193,75.408 57.333,75.500 57.333 C 75.592 57.333,75.667 57.429,75.667 57.547 C 75.667 57.664,75.817 57.868,76.000 58.000 C 76.183 58.132,76.333 58.357,76.333 58.500 C 76.333 58.643,76.483 58.868,76.667 59.000 C 76.850 59.132,77.000 59.374,77.000 59.537 C 77.000 59.700,77.075 59.833,77.167 59.833 C 77.258 59.833,77.333 59.967,77.333 60.130 C 77.333 60.293,77.483 60.535,77.667 60.667 C 77.850 60.799,78.000 61.003,78.000 61.120 C 78.000 61.237,78.075 61.333,78.167 61.333 C 78.258 61.333,78.333 61.478,78.333 61.655 C 78.333 61.832,78.446 62.089,78.583 62.226 C 78.721 62.364,78.833 62.594,78.833 62.738 C 78.833 62.882,78.908 63.000,79.000 63.000 C 79.092 63.000,79.167 63.133,79.167 63.297 C 79.167 63.460,79.317 63.701,79.500 63.833 C 79.683 63.965,79.833 64.153,79.833 64.250 C 79.833 64.347,79.983 64.535,80.167 64.667 C 80.350 64.799,80.500 65.040,80.500 65.203 C 80.500 65.367,80.575 65.500,80.667 65.500 C 80.758 65.500,80.833 65.622,80.833 65.772 C 80.833 65.922,80.973 66.166,81.144 66.314 C 81.315 66.462,81.506 66.813,81.567 67.093 C 81.629 67.373,81.826 67.708,82.006 67.838 C 82.186 67.967,82.333 68.207,82.333 68.370 C 82.333 68.533,82.408 68.667,82.500 68.667 C 82.592 68.667,82.667 68.800,82.667 68.963 C 82.667 69.126,82.817 69.368,83.000 69.500 C 83.183 69.632,83.333 69.857,83.333 70.000 C 83.333 70.143,83.483 70.368,83.667 70.500 C 83.850 70.632,84.000 70.836,84.000 70.953 C 84.000 71.071,84.075 71.167,84.167 71.167 C 84.258 71.167,84.333 71.289,84.333 71.439 C 84.333 71.588,84.473 71.832,84.644 71.981 C 84.815 72.129,85.013 72.513,85.083 72.833 C 85.154 73.154,85.351 73.538,85.522 73.686 C 85.693 73.834,85.833 74.009,85.833 74.073 C 85.833 74.138,85.940 74.298,86.071 74.429 C 86.434 74.791,93.167 74.780,93.167 74.417 C 93.167 74.279,93.242 74.167,93.333 74.167 C 93.425 74.167,93.500 74.033,93.500 73.870 C 93.500 73.707,93.650 73.465,93.833 73.333 C 94.017 73.201,94.167 72.960,94.167 72.797 C 94.167 72.633,94.242 72.500,94.333 72.500 C 94.425 72.500,94.500 72.382,94.500 72.238 C 94.500 72.094,94.612 71.864,94.750 71.726 C 94.888 71.589,95.000 71.332,95.000 71.155 C 95.000 70.978,95.075 70.833,95.167 70.833 C 95.258 70.833,95.333 70.721,95.333 70.583 C 95.333 70.446,95.408 70.333,95.500 70.333 C 95.592 70.333,95.667 70.200,95.667 70.037 C 95.667 69.874,95.817 69.632,96.000 69.500 C 96.183 69.368,96.333 69.126,96.333 68.963 C 96.333 68.800,96.408 68.667,96.500 68.667 C 96.592 68.667,96.667 68.533,96.667 68.370 C 96.667 68.207,96.817 67.965,97.000 67.833 C 97.183 67.701,97.333 67.497,97.333 67.380 C 97.333 67.263,97.408 67.167,97.500 67.167 C 97.592 67.167,97.667 67.044,97.667 66.895 C 97.667 66.745,97.807 66.501,97.978 66.353 C 98.149 66.204,98.346 65.821,98.417 65.500 C 98.487 65.179,98.685 64.796,98.856 64.647 C 99.027 64.499,99.167 64.293,99.167 64.189 C 99.167 64.085,99.242 64.000,99.333 64.000 C 99.425 64.000,99.500 63.867,99.500 63.703 C 99.500 63.540,99.650 63.299,99.833 63.167 C 100.017 63.035,100.167 62.793,100.167 62.630 C 100.167 62.467,100.242 62.333,100.333 62.333 C 100.425 62.333,100.500 62.211,100.500 62.061 C 100.500 61.912,100.638 61.668,100.806 61.520 C 100.974 61.371,101.251 60.931,101.421 60.542 C 101.591 60.152,101.791 59.833,101.865 59.833 C 101.939 59.833,102.000 59.683,102.000 59.500 C 102.000 59.317,102.075 59.167,102.167 59.167 C 102.258 59.167,102.333 59.033,102.333 58.870 C 102.333 58.707,102.483 58.465,102.667 58.333 C 102.850 58.201,103.000 57.997,103.000 57.880 C 103.000 57.763,103.075 57.667,103.167 57.667 C 103.258 57.667,103.333 57.517,103.333 57.333 C 103.333 57.150,103.408 57.000,103.500 57.000 C 103.592 57.000,103.667 56.867,103.667 56.703 C 103.667 56.540,103.817 56.299,104.000 56.167 C 104.183 56.035,104.333 55.793,104.333 55.630 C 104.333 55.467,104.408 55.333,104.500 55.333 C 104.595 55.333,104.667 55.833,104.667 56.500 C 104.667 57.167,104.738 57.667,104.833 57.667 C 104.943 57.667,105.000 61.417,105.000 68.583 L 105.000 79.500 111.500 79.500 L 118.000 79.500 118.000 55.250 L 118.000 31.000 111.917 31.000 C 107.497 31.000,105.833 31.052,105.833 31.189 C 105.833 31.293,105.693 31.499,105.522 31.647 C 105.351 31.796,105.154 32.179,105.083 32.500 C 105.013 32.821,104.815 33.204,104.644 33.353 C 104.473 33.501,104.333 33.745,104.333 33.895 C 104.333 34.044,104.258 34.167,104.167 34.167 C 104.075 34.167,104.000 34.279,104.000 34.417 C 104.000 34.554,103.925 34.667,103.833 34.667 C 103.742 34.667,103.667 34.800,103.667 34.963 C 103.667 35.126,103.517 35.368,103.333 35.500 C 103.150 35.632,103.000 35.874,103.000 36.037 C 103.000 36.200,102.925 36.333,102.833 36.333 C 102.742 36.333,102.667 36.456,102.667 36.605 C 102.667 36.755,102.529 36.999,102.361 37.147 C 102.193 37.295,101.916 37.735,101.746 38.125 C 101.575 38.515,101.375 38.833,101.301 38.833 C 101.227 38.833,101.167 38.983,101.167 39.167 C 101.167 39.350,101.092 39.500,101.000 39.500 C 100.908 39.500,100.833 39.633,100.833 39.797 C 100.833 39.960,100.683 40.201,100.500 40.333 C 100.317 40.465,100.167 40.707,100.167 40.870 C 100.167 41.033,100.092 41.167,100.000 41.167 C 99.908 41.167,99.833 41.263,99.833 41.380 C 99.833 41.497,99.683 41.701,99.500 41.833 C 99.317 41.965,99.167 42.207,99.167 42.370 C 99.167 42.533,99.092 42.667,99.000 42.667 C 98.908 42.667,98.833 42.785,98.833 42.929 C 98.833 43.073,98.721 43.303,98.583 43.440 C 98.446 43.578,98.333 43.835,98.333 44.012 C 98.333 44.189,98.258 44.333,98.167 44.333 C 98.075 44.333,98.000 44.446,98.000 44.583 C 98.000 44.721,97.925 44.833,97.833 44.833 C 97.742 44.833,97.667 44.967,97.667 45.130 C 97.667 45.293,97.517 45.535,97.333 45.667 C 97.150 45.799,97.000 46.040,97.000 46.203 C 97.000 46.367,96.925 46.500,96.833 46.500 C 96.742 46.500,96.667 46.633,96.667 46.797 C 96.667 46.960,96.517 47.201,96.333 47.333 C 96.150 47.465,96.000 47.670,96.000 47.787 C 96.000 47.904,95.925 48.000,95.833 48.000 C 95.742 48.000,95.667 48.122,95.667 48.272 C 95.667 48.422,95.527 48.666,95.356 48.814 C 95.185 48.962,94.987 49.346,94.917 49.667 C 94.846 49.987,94.649 50.371,94.478 50.519 C 94.307 50.668,94.167 50.874,94.167 50.978 C 94.167 51.082,94.092 51.167,94.000 51.167 C 93.908 51.167,93.833 51.300,93.833 51.463 C 93.833 51.626,93.683 51.868,93.500 52.000 C 93.317 52.132,93.167 52.374,93.167 52.537 C 93.167 52.700,93.092 52.833,93.000 52.833 C 92.908 52.833,92.833 52.956,92.833 53.105 C 92.833 53.255,92.698 53.499,92.533 53.647 C 92.201 53.945,91.667 55.004,91.667 55.363 C 91.667 55.490,91.517 55.701,91.333 55.833 C 91.150 55.965,91.000 56.207,91.000 56.370 C 91.000 56.533,90.925 56.667,90.833 56.667 C 90.742 56.667,90.667 56.800,90.667 56.963 C 90.667 57.126,90.517 57.368,90.333 57.500 C 90.150 57.632,90.000 57.836,90.000 57.953 C 90.000 58.071,89.957 58.167,89.905 58.167 C 89.741 58.167,89.333 57.699,89.333 57.512 C 89.333 57.414,89.258 57.333,89.167 57.333 C 89.075 57.333,89.000 57.211,89.000 57.061 C 89.000 56.912,88.862 56.668,88.693 56.520 C 88.525 56.371,88.336 56.044,88.273 55.792 C 88.211 55.540,88.087 55.333,87.997 55.333 C 87.907 55.333,87.833 55.183,87.833 55.000 C 87.833 54.817,87.758 54.667,87.667 54.667 C 87.575 54.667,87.500 54.571,87.500 54.453 C 87.500 54.336,87.350 54.132,87.167 54.000 C 86.983 53.868,86.833 53.626,86.833 53.463 C 86.833 53.300,86.758 53.167,86.667 53.167 C 86.575 53.167,86.500 53.033,86.500 52.870 C 86.500 52.707,86.350 52.465,86.167 52.333 C 85.983 52.201,85.833 51.960,85.833 51.797 C 85.833 51.633,85.758 51.500,85.667 51.500 C 85.575 51.500,85.500 51.420,85.500 51.321 C 85.500 51.223,85.388 51.030,85.250 50.893 C 85.112 50.755,85.000 50.498,85.000 50.321 C 85.000 50.145,84.925 50.000,84.833 50.000 C 84.742 50.000,84.667 49.867,84.667 49.703 C 84.667 49.540,84.517 49.299,84.333 49.167 C 84.150 49.035,84.000 48.810,84.000 48.667 C 84.000 48.524,83.850 48.299,83.667 48.167 C 83.483 48.035,83.333 47.830,83.333 47.713 C 83.333 47.596,83.258 47.500,83.167 47.500 C 83.075 47.500,83.000 47.367,83.000 47.203 C 83.000 47.040,82.850 46.799,82.667 46.667 C 82.483 46.535,82.333 46.293,82.333 46.130 C 82.333 45.967,82.258 45.833,82.167 45.833 C 82.075 45.833,82.000 45.683,82.000 45.500 C 82.000 45.317,81.926 45.167,81.837 45.167 C 81.747 45.167,81.626 44.979,81.568 44.750 C 81.511 44.521,81.397 44.333,81.315 44.333 C 81.234 44.333,81.167 44.200,81.167 44.037 C 81.167 43.874,81.017 43.632,80.833 43.500 C 80.650 43.368,80.500 43.126,80.500 42.963 C 80.500 42.800,80.425 42.667,80.333 42.667 C 80.242 42.667,80.167 42.533,80.167 42.370 C 80.167 42.207,80.017 41.965,79.833 41.833 C 79.650 41.701,79.500 41.514,79.500 41.417 C 79.500 41.320,79.350 41.132,79.167 41.000 C 78.983 40.868,78.833 40.626,78.833 40.463 C 78.833 40.300,78.758 40.167,78.667 40.167 C 78.575 40.167,78.500 40.022,78.500 39.845 C 78.500 39.668,78.387 39.411,78.250 39.274 C 78.112 39.136,78.000 38.906,78.000 38.762 C 78.000 38.618,77.925 38.500,77.833 38.500 C 77.742 38.500,77.667 38.388,77.667 38.251 C 77.667 38.115,77.517 37.909,77.333 37.795 C 77.150 37.680,77.000 37.455,77.000 37.293 C 77.000 37.132,76.925 37.000,76.833 37.000 C 76.742 37.000,76.667 36.867,76.667 36.703 C 76.667 36.540,76.517 36.299,76.333 36.167 C 76.150 36.035,76.000 35.793,76.000 35.630 C 76.000 35.467,75.925 35.333,75.833 35.333 C 75.742 35.333,75.667 35.188,75.667 35.011 C 75.667 34.834,75.517 34.642,75.333 34.583 C 75.150 34.525,75.000 34.338,75.000 34.167 C 75.000 33.997,74.887 33.745,74.750 33.607 C 74.612 33.470,74.500 33.239,74.500 33.095 C 74.500 32.951,74.425 32.833,74.333 32.833 C 74.242 32.833,74.167 32.700,74.167 32.537 C 74.167 32.374,74.017 32.132,73.833 32.000 C 73.650 31.868,73.500 31.696,73.500 31.618 C 73.500 31.038,73.116 31.000,67.262 31.000 L 61.500 31.000 61.500 55.250 M127.167 55.250 L 127.167 79.500 134.333 79.500 L 141.500 79.500 141.500 73.167 L 141.500 66.833 144.917 66.833 C 147.834 66.833,148.333 66.870,148.333 67.082 C 148.333 67.219,148.483 67.424,148.667 67.539 C 148.850 67.653,149.000 67.862,149.000 68.003 C 149.000 68.144,149.150 68.368,149.333 68.500 C 149.517 68.632,149.667 68.857,149.667 69.000 C 149.667 69.143,149.817 69.368,150.000 69.500 C 150.183 69.632,150.333 69.846,150.333 69.976 C 150.333 70.221,150.947 70.833,151.192 70.833 C 151.270 70.833,151.333 70.983,151.333 71.167 C 151.333 71.350,151.407 71.500,151.497 71.500 C 151.587 71.500,151.711 71.706,151.773 71.958 C 151.836 72.210,152.025 72.538,152.193 72.686 C 152.362 72.834,152.500 73.062,152.500 73.191 C 152.500 73.321,152.650 73.535,152.833 73.667 C 153.017 73.799,153.167 73.986,153.167 74.083 C 153.167 74.180,153.317 74.368,153.500 74.500 C 153.683 74.632,153.833 74.857,153.833 75.000 C 153.833 75.143,153.983 75.368,154.167 75.500 C 154.350 75.632,154.500 75.839,154.500 75.961 C 154.500 76.082,154.688 76.383,154.917 76.631 C 155.146 76.878,155.333 77.158,155.333 77.253 C 155.333 77.348,155.483 77.535,155.667 77.667 C 155.850 77.799,156.000 78.024,156.000 78.167 C 156.000 78.310,156.150 78.535,156.333 78.667 C 156.517 78.799,156.667 79.040,156.667 79.203 C 156.667 79.483,157.091 79.500,164.250 79.500 C 171.088 79.500,171.833 79.474,171.833 79.234 C 171.833 78.865,171.328 77.833,171.148 77.833 C 171.066 77.833,171.000 77.737,171.000 77.620 C 171.000 77.503,170.850 77.299,170.667 77.167 C 170.483 77.035,170.333 76.810,170.333 76.667 C 170.333 76.524,170.183 76.299,170.000 76.167 C 169.817 76.035,169.667 75.810,169.667 75.667 C 169.667 75.524,169.517 75.299,169.333 75.167 C 169.150 75.035,169.000 74.798,169.000 74.641 C 169.000 74.484,168.850 74.308,168.667 74.250 C 168.483 74.192,168.333 74.003,168.333 73.830 C 168.333 73.657,168.146 73.328,167.917 73.098 C 167.688 72.869,167.500 72.582,167.500 72.461 C 167.500 72.340,167.350 72.132,167.167 72.000 C 166.983 71.868,166.833 71.643,166.833 71.500 C 166.833 71.357,166.683 71.132,166.500 71.000 C 166.317 70.868,166.167 70.680,166.167 70.583 C 166.167 70.486,166.017 70.299,165.833 70.167 C 165.650 70.035,165.500 69.793,165.500 69.630 C 165.500 69.467,165.426 69.333,165.337 69.333 C 165.247 69.333,165.121 69.127,165.058 68.875 C 164.996 68.623,164.732 68.218,164.472 67.975 C 164.212 67.732,164.000 67.467,164.000 67.387 C 164.000 67.306,163.850 67.132,163.667 67.000 C 163.483 66.868,163.333 66.643,163.333 66.500 C 163.333 66.357,163.183 66.132,163.000 66.000 C 162.817 65.868,162.667 65.643,162.667 65.500 C 162.667 65.357,162.517 65.132,162.333 65.000 C 162.150 64.868,162.000 64.664,162.000 64.547 C 162.000 64.429,161.906 64.327,161.792 64.318 C 161.677 64.310,161.827 64.233,162.125 64.147 C 162.423 64.061,162.667 63.918,162.667 63.829 C 162.667 63.740,162.817 63.667,163.000 63.667 C 163.183 63.667,163.333 63.592,163.333 63.500 C 163.333 63.408,163.453 63.333,163.600 63.333 C 163.746 63.333,164.076 63.108,164.333 62.833 C 164.590 62.558,164.847 62.333,164.905 62.333 C 164.962 62.333,165.341 62.015,165.747 61.625 C 166.153 61.235,166.785 60.654,167.151 60.333 C 167.518 60.012,167.821 59.619,167.826 59.458 C 167.830 59.298,167.907 59.167,167.997 59.167 C 168.087 59.167,168.211 58.960,168.273 58.708 C 168.336 58.456,168.525 58.129,168.693 57.980 C 168.862 57.832,169.000 57.626,169.000 57.522 C 169.000 57.418,169.075 57.333,169.167 57.333 C 169.258 57.333,169.333 57.183,169.333 57.000 C 169.333 56.817,169.408 56.667,169.500 56.667 C 169.592 56.667,169.667 56.517,169.667 56.333 C 169.667 56.150,169.742 56.000,169.833 56.000 C 169.925 56.000,170.000 55.775,170.000 55.500 C 170.000 55.225,170.075 55.000,170.167 55.000 C 170.258 55.000,170.333 54.813,170.333 54.583 C 170.333 54.354,170.408 54.167,170.500 54.167 C 170.592 54.167,170.667 53.792,170.667 53.333 C 170.667 52.875,170.742 52.500,170.833 52.500 C 170.939 52.500,171.000 51.167,171.000 48.833 C 171.000 46.500,170.939 45.167,170.833 45.167 C 170.742 45.167,170.667 44.904,170.667 44.583 C 170.667 44.262,170.592 44.000,170.500 44.000 C 170.408 44.000,170.333 43.700,170.333 43.333 C 170.333 42.967,170.258 42.667,170.167 42.667 C 170.075 42.667,170.000 42.517,170.000 42.333 C 170.000 42.150,169.925 42.000,169.833 42.000 C 169.742 42.000,169.667 41.813,169.667 41.583 C 169.667 41.354,169.592 41.167,169.500 41.167 C 169.408 41.167,169.333 41.033,169.333 40.870 C 169.333 40.707,169.183 40.465,169.000 40.333 C 168.817 40.201,168.667 39.960,168.667 39.797 C 168.667 39.633,168.592 39.500,168.500 39.500 C 168.408 39.500,168.333 39.353,168.333 39.174 C 168.333 38.995,168.146 38.661,167.917 38.432 C 167.688 38.203,167.500 37.973,167.500 37.922 C 167.500 37.790,165.029 35.333,164.897 35.333 C 164.838 35.333,164.668 35.195,164.520 35.027 C 164.371 34.858,164.044 34.669,163.792 34.607 C 163.540 34.545,163.333 34.420,163.333 34.330 C 163.333 34.240,163.183 34.167,163.000 34.167 C 162.817 34.167,162.667 34.092,162.667 34.000 C 162.667 33.908,162.517 33.833,162.333 33.833 C 162.150 33.833,162.000 33.758,162.000 33.667 C 162.000 33.575,161.887 33.500,161.750 33.500 C 161.612 33.500,161.500 33.425,161.500 33.333 C 161.500 33.242,161.350 33.167,161.167 33.167 C 160.983 33.167,160.833 33.092,160.833 33.000 C 160.833 32.908,160.683 32.833,160.500 32.833 C 160.317 32.833,160.167 32.758,160.167 32.667 C 160.167 32.575,159.942 32.500,159.667 32.500 C 159.392 32.500,159.167 32.425,159.167 32.333 C 159.167 32.242,158.984 32.167,158.760 32.167 C 158.536 32.167,158.307 32.092,158.250 32.000 C 158.193 31.908,157.964 31.833,157.740 31.833 C 157.516 31.833,157.333 31.766,157.333 31.683 C 157.333 31.600,156.546 31.478,155.583 31.413 C 154.621 31.347,153.833 31.227,153.833 31.147 C 153.833 31.063,148.072 31.000,140.500 31.000 L 127.167 31.000 127.167 55.250 M264.000 31.250 C 264.000 31.387,263.925 31.500,263.833 31.500 C 263.742 31.500,263.667 31.725,263.667 32.000 C 263.667 32.275,263.592 32.500,263.500 32.500 C 263.408 32.500,263.333 32.650,263.333 32.833 C 263.333 33.017,263.258 33.167,263.167 33.167 C 263.075 33.167,263.000 33.317,263.000 33.500 C 263.000 33.683,262.925 33.833,262.833 33.833 C 262.742 33.833,262.667 34.021,262.667 34.250 C 262.667 34.479,262.592 34.667,262.500 34.667 C 262.408 34.667,262.333 34.817,262.333 35.000 C 262.333 35.183,262.258 35.333,262.167 35.333 C 262.075 35.333,262.000 35.483,262.000 35.667 C 262.000 35.850,261.928 36.000,261.839 36.000 C 261.751 36.000,261.628 36.375,261.568 36.833 C 261.507 37.292,261.392 37.667,261.312 37.667 C 261.232 37.667,261.167 37.779,261.167 37.917 C 261.167 38.054,261.092 38.167,261.000 38.167 C 260.908 38.167,260.833 38.317,260.833 38.500 C 260.833 38.683,260.758 38.833,260.667 38.833 C 260.575 38.833,260.500 38.983,260.500 39.167 C 260.500 39.350,260.425 39.500,260.333 39.500 C 260.242 39.500,260.167 39.725,260.167 40.000 C 260.167 40.275,260.092 40.500,260.000 40.500 C 259.908 40.500,259.833 40.650,259.833 40.833 C 259.833 41.017,259.758 41.167,259.667 41.167 C 259.575 41.167,259.500 41.279,259.500 41.417 C 259.500 41.554,259.425 41.667,259.333 41.667 C 259.242 41.667,259.167 41.817,259.167 42.000 C 259.167 42.183,259.092 42.333,259.000 42.333 C 258.908 42.333,258.833 42.558,258.833 42.833 C 258.833 43.108,258.767 43.333,258.685 43.333 C 258.604 43.333,258.488 43.596,258.428 43.917 C 258.367 44.237,258.247 44.500,258.159 44.500 C 258.072 44.500,258.000 44.725,258.000 45.000 C 258.000 45.275,257.925 45.500,257.833 45.500 C 257.742 45.500,257.667 45.650,257.667 45.833 C 257.667 46.017,257.592 46.167,257.500 46.167 C 257.408 46.167,257.333 46.317,257.333 46.500 C 257.333 46.683,257.258 46.833,257.167 46.833 C 257.075 46.833,257.000 46.983,257.000 47.167 C 257.000 47.350,256.925 47.500,256.833 47.500 C 256.742 47.500,256.667 47.688,256.667 47.917 C 256.667 48.146,256.592 48.333,256.500 48.333 C 256.408 48.333,256.333 48.483,256.333 48.667 C 256.333 48.850,256.258 49.000,256.167 49.000 C 256.075 49.000,256.000 49.150,256.000 49.333 C 256.000 49.517,255.925 49.667,255.833 49.667 C 255.742 49.667,255.667 49.817,255.667 50.000 C 255.667 50.183,255.592 50.333,255.500 50.333 C 255.408 50.333,255.333 50.475,255.333 50.648 C 255.333 50.820,255.221 51.177,255.084 51.439 C 254.947 51.702,254.835 52.048,254.834 52.208 C 254.834 52.369,254.758 52.500,254.667 52.500 C 254.575 52.500,254.500 52.650,254.500 52.833 C 254.500 53.017,254.425 53.167,254.333 53.167 C 254.242 53.167,254.167 53.392,254.167 53.667 C 254.167 53.942,254.092 54.167,254.000 54.167 C 253.908 54.167,253.833 54.279,253.833 54.417 C 253.833 54.554,253.758 54.667,253.667 54.667 C 253.575 54.667,253.500 54.817,253.500 55.000 C 253.500 55.183,253.425 55.333,253.333 55.333 C 253.242 55.333,253.167 55.558,253.167 55.833 C 253.167 56.108,253.092 56.333,253.000 56.333 C 252.908 56.333,252.833 56.483,252.833 56.667 C 252.833 56.850,252.758 57.000,252.667 57.000 C 252.575 57.000,252.500 57.150,252.500 57.333 C 252.500 57.517,252.425 57.667,252.333 57.667 C 252.242 57.667,252.167 57.779,252.167 57.917 C 252.167 58.054,252.101 58.167,252.021 58.167 C 251.942 58.167,251.827 58.542,251.766 59.000 C 251.705 59.458,251.583 59.833,251.494 59.833 C 251.406 59.833,251.333 59.983,251.333 60.167 C 251.333 60.350,251.258 60.500,251.167 60.500 C 251.075 60.500,251.000 60.612,251.000 60.750 C 251.000 60.887,250.925 61.000,250.833 61.000 C 250.742 61.000,250.667 61.225,250.667 61.500 C 250.667 61.775,250.592 62.000,250.500 62.000 C 250.408 62.000,250.333 62.150,250.333 62.333 C 250.333 62.517,250.258 62.667,250.167 62.667 C 250.075 62.667,250.000 62.817,250.000 63.000 C 250.000 63.183,249.925 63.333,249.833 63.333 C 249.742 63.333,249.667 63.483,249.667 63.667 C 249.667 63.850,249.592 64.000,249.500 64.000 C 249.408 64.000,249.333 64.188,249.333 64.417 C 249.333 64.646,249.258 64.833,249.167 64.833 C 249.075 64.833,249.000 64.983,249.000 65.167 C 249.000 65.350,248.925 65.500,248.833 65.500 C 248.742 65.500,248.667 65.650,248.667 65.833 C 248.667 66.017,248.602 66.167,248.522 66.167 C 248.442 66.167,248.335 66.484,248.283 66.871 C 248.231 67.259,248.108 67.603,248.011 67.635 C 247.913 67.668,247.833 67.838,247.833 68.014 C 247.833 68.190,247.758 68.333,247.667 68.333 C 247.575 68.333,247.500 68.483,247.500 68.667 C 247.500 68.850,247.425 69.000,247.333 69.000 C 247.242 69.000,247.167 69.225,247.167 69.500 C 247.167 69.775,247.092 70.000,247.000 70.000 C 246.908 70.000,246.833 70.150,246.833 70.333 C 246.833 70.517,246.758 70.667,246.667 70.667 C 246.575 70.667,246.500 70.779,246.500 70.917 C 246.500 71.054,246.425 71.167,246.333 71.167 C 246.242 71.167,246.167 71.317,246.167 71.500 C 246.167 71.683,246.092 71.833,246.000 71.833 C 245.908 71.833,245.833 72.058,245.833 72.333 C 245.833 72.608,245.758 72.833,245.667 72.833 C 245.575 72.833,245.500 72.983,245.500 73.167 C 245.500 73.350,245.433 73.500,245.352 73.500 C 245.270 73.500,245.155 73.762,245.094 74.083 C 245.034 74.404,244.913 74.667,244.826 74.667 C 244.738 74.667,244.667 74.892,244.667 75.167 C 244.667 75.442,244.592 75.667,244.500 75.667 C 244.408 75.667,244.333 75.817,244.333 76.000 C 244.333 76.183,244.258 76.333,244.167 76.333 C 244.075 76.333,244.000 76.483,244.000 76.667 C 244.000 76.850,243.925 77.000,243.833 77.000 C 243.742 77.000,243.667 77.188,243.667 77.417 C 243.667 77.646,243.592 77.833,243.500 77.833 C 243.408 77.833,243.333 77.983,243.333 78.167 C 243.333 78.350,243.258 78.500,243.167 78.500 C 243.075 78.500,243.000 78.725,243.000 79.000 L 243.000 79.500 250.095 79.500 C 257.567 79.500,257.667 79.490,257.667 78.762 C 257.667 78.618,257.742 78.500,257.833 78.500 C 257.925 78.500,258.000 78.281,258.000 78.014 C 258.000 77.747,258.080 77.501,258.177 77.469 C 258.275 77.436,258.397 77.092,258.449 76.705 C 258.501 76.317,258.609 76.000,258.689 76.000 C 258.768 76.000,258.833 75.850,258.833 75.667 C 258.833 75.483,258.908 75.333,259.000 75.333 C 259.092 75.333,259.167 75.108,259.167 74.833 C 259.167 74.558,259.242 74.333,259.333 74.333 C 259.425 74.333,259.500 74.221,259.500 74.083 C 259.500 73.946,259.575 73.833,259.667 73.833 C 259.758 73.833,259.833 73.608,259.833 73.333 C 259.833 73.058,259.908 72.833,260.000 72.833 C 260.092 72.833,260.167 72.683,260.167 72.500 C 260.167 72.317,260.242 72.167,260.333 72.167 C 260.425 72.167,260.500 72.017,260.500 71.833 C 260.500 71.650,260.575 71.500,260.667 71.500 C 260.758 71.500,260.833 71.345,260.833 71.155 C 260.833 70.314,260.591 70.333,271.238 70.333 C 279.952 70.333,281.167 70.364,281.167 70.583 C 281.167 70.721,281.232 70.833,281.312 70.833 C 281.392 70.833,281.507 71.208,281.568 71.667 C 281.628 72.125,281.751 72.500,281.839 72.500 C 281.928 72.500,282.000 72.650,282.000 72.833 C 282.000 73.017,282.075 73.167,282.167 73.167 C 282.258 73.167,282.333 73.302,282.333 73.467 C 282.333 73.839,282.706 74.664,282.875 74.665 C 282.944 74.666,283.000 74.892,283.000 75.167 C 283.000 75.442,283.075 75.667,283.167 75.667 C 283.258 75.667,283.333 75.817,283.333 76.000 C 283.333 76.183,283.408 76.333,283.500 76.333 C 283.592 76.333,283.667 76.558,283.667 76.833 C 283.667 77.108,283.742 77.333,283.833 77.333 C 283.925 77.333,284.000 77.446,284.000 77.583 C 284.000 77.721,284.075 77.833,284.167 77.833 C 284.258 77.833,284.333 78.058,284.333 78.333 C 284.333 78.608,284.408 78.833,284.500 78.833 C 284.592 78.833,284.667 78.983,284.667 79.167 C 284.667 79.495,284.778 79.500,292.083 79.500 C 299.389 79.500,299.500 79.495,299.500 79.167 C 299.500 78.983,299.425 78.833,299.333 78.833 C 299.242 78.833,299.167 78.683,299.167 78.500 C 299.167 78.317,299.092 78.167,299.000 78.167 C 298.908 78.167,298.833 78.017,298.833 77.833 C 298.833 77.650,298.767 77.500,298.686 77.500 C 298.604 77.500,298.487 77.162,298.425 76.750 C 298.364 76.337,298.243 76.000,298.156 76.000 C 298.070 76.000,298.000 75.850,298.000 75.667 C 298.000 75.483,297.925 75.333,297.833 75.333 C 297.742 75.333,297.667 75.108,297.667 74.833 C 297.667 74.558,297.592 74.333,297.500 74.333 C 297.408 74.333,297.333 74.221,297.333 74.083 C 297.333 73.946,297.258 73.833,297.167 73.833 C 297.075 73.833,297.000 73.683,297.000 73.500 C 297.000 73.317,296.925 73.167,296.833 73.167 C 296.742 73.167,296.667 73.017,296.667 72.833 C 296.667 72.650,296.592 72.500,296.500 72.500 C 296.408 72.500,296.333 72.275,296.333 72.000 C 296.333 71.725,296.258 71.500,296.167 71.500 C 296.075 71.500,296.000 71.350,296.000 71.167 C 296.000 70.983,295.925 70.833,295.833 70.833 C 295.742 70.833,295.667 70.721,295.667 70.583 C 295.667 70.446,295.592 70.333,295.500 70.333 C 295.408 70.333,295.333 70.183,295.333 70.000 C 295.333 69.817,295.268 69.667,295.188 69.667 C 295.108 69.667,294.993 69.292,294.932 68.833 C 294.872 68.375,294.749 68.000,294.661 68.000 C 294.572 68.000,294.500 67.887,294.500 67.750 C 294.500 67.612,294.425 67.500,294.333 67.500 C 294.242 67.500,294.167 67.350,294.167 67.167 C 294.167 66.983,294.092 66.833,294.000 66.833 C 293.908 66.833,293.833 66.608,293.833 66.333 C 293.833 66.058,293.758 65.833,293.667 65.833 C 293.575 65.833,293.500 65.683,293.500 65.500 C 293.500 65.317,293.425 65.167,293.333 65.167 C 293.242 65.167,293.167 65.017,293.167 64.833 C 293.167 64.650,293.092 64.500,293.000 64.500 C 292.908 64.500,292.833 64.387,292.833 64.250 C 292.833 64.112,292.758 64.000,292.667 64.000 C 292.575 64.000,292.500 63.775,292.500 63.500 C 292.500 63.225,292.425 63.000,292.333 63.000 C 292.242 63.000,292.167 62.850,292.167 62.667 C 292.167 62.483,292.092 62.333,292.000 62.333 C 291.908 62.333,291.833 62.202,291.832 62.042 C 291.832 61.881,291.719 61.535,291.582 61.273 C 291.445 61.010,291.333 60.654,291.333 60.481 C 291.333 60.308,291.258 60.167,291.167 60.167 C 291.075 60.167,291.000 60.017,291.000 59.833 C 291.000 59.650,290.925 59.500,290.833 59.500 C 290.742 59.500,290.667 59.350,290.667 59.167 C 290.667 58.983,290.592 58.833,290.500 58.833 C 290.408 58.833,290.333 58.683,290.333 58.500 C 290.333 58.317,290.258 58.167,290.167 58.167 C 290.075 58.167,290.000 57.979,290.000 57.750 C 290.000 57.521,289.925 57.333,289.833 57.333 C 289.742 57.333,289.667 57.183,289.667 57.000 C 289.667 56.817,289.592 56.667,289.500 56.667 C 289.408 56.667,289.333 56.517,289.333 56.333 C 289.333 56.150,289.258 56.000,289.167 56.000 C 289.075 56.000,289.000 55.775,289.000 55.500 C 289.000 55.225,288.925 55.000,288.833 55.000 C 288.742 55.000,288.667 54.850,288.667 54.667 C 288.667 54.483,288.595 54.333,288.508 54.333 C 288.420 54.333,288.299 54.071,288.239 53.750 C 288.179 53.429,288.063 53.167,287.981 53.167 C 287.900 53.167,287.833 52.942,287.833 52.667 C 287.833 52.392,287.758 52.167,287.667 52.167 C 287.575 52.167,287.500 52.017,287.500 51.833 C 287.500 51.650,287.425 51.500,287.333 51.500 C 287.242 51.500,287.167 51.387,287.167 51.250 C 287.167 51.112,287.092 51.000,287.000 51.000 C 286.908 51.000,286.833 50.850,286.833 50.667 C 286.833 50.483,286.758 50.333,286.667 50.333 C 286.575 50.333,286.500 50.108,286.500 49.833 C 286.500 49.558,286.425 49.333,286.333 49.333 C 286.242 49.333,286.167 49.183,286.167 49.000 C 286.167 48.817,286.092 48.667,286.000 48.667 C 285.908 48.667,285.833 48.517,285.833 48.333 C 285.833 48.150,285.758 48.000,285.667 48.000 C 285.575 48.000,285.500 47.887,285.500 47.750 C 285.500 47.612,285.435 47.500,285.355 47.500 C 285.275 47.500,285.160 47.125,285.099 46.667 C 285.038 46.208,284.916 45.833,284.828 45.833 C 284.739 45.833,284.667 45.683,284.667 45.500 C 284.667 45.317,284.610 45.166,284.542 45.165 C 284.373 45.164,284.000 44.339,284.000 43.967 C 284.000 43.802,283.925 43.667,283.833 43.667 C 283.742 43.667,283.667 43.517,283.667 43.333 C 283.667 43.150,283.592 43.000,283.500 43.000 C 283.408 43.000,283.333 42.850,283.333 42.667 C 283.333 42.483,283.258 42.333,283.167 42.333 C 283.075 42.333,283.000 42.183,283.000 42.000 C 283.000 41.817,282.925 41.667,282.833 41.667 C 282.742 41.667,282.667 41.479,282.667 41.250 C 282.667 41.021,282.592 40.833,282.500 40.833 C 282.408 40.833,282.333 40.683,282.333 40.500 C 282.333 40.317,282.258 40.167,282.167 40.167 C 282.075 40.167,282.000 40.017,282.000 39.833 C 282.000 39.650,281.933 39.500,281.852 39.500 C 281.770 39.500,281.653 39.219,281.592 38.875 C 281.456 38.122,281.133 37.333,280.959 37.333 C 280.890 37.333,280.833 37.183,280.833 37.000 C 280.833 36.817,280.758 36.667,280.667 36.667 C 280.575 36.667,280.500 36.442,280.500 36.167 C 280.500 35.892,280.425 35.667,280.333 35.667 C 280.242 35.667,280.167 35.517,280.167 35.333 C 280.167 35.150,280.092 35.000,280.000 35.000 C 279.908 35.000,279.833 34.887,279.833 34.750 C 279.833 34.612,279.758 34.500,279.667 34.500 C 279.575 34.500,279.500 34.350,279.500 34.167 C 279.500 33.983,279.425 33.833,279.333 33.833 C 279.242 33.833,279.167 33.608,279.167 33.333 C 279.167 33.058,279.092 32.833,279.000 32.833 C 278.908 32.833,278.833 32.683,278.833 32.500 C 278.833 32.317,278.767 32.167,278.685 32.167 C 278.604 32.167,278.488 31.904,278.428 31.583 L 278.318 31.000 271.159 31.000 C 264.907 31.000,264.000 31.032,264.000 31.250 M302.333 55.250 L 302.333 79.500 316.333 79.500 C 325.556 79.500,330.333 79.443,330.333 79.333 C 330.333 79.242,330.746 79.167,331.250 79.167 C 331.754 79.167,332.167 79.092,332.167 79.000 C 332.167 78.908,332.542 78.833,333.000 78.833 C 333.458 78.833,333.833 78.758,333.833 78.667 C 333.833 78.575,334.096 78.500,334.417 78.500 C 334.737 78.500,335.000 78.425,335.000 78.333 C 335.000 78.242,335.225 78.167,335.500 78.167 C 335.775 78.167,336.000 78.092,336.000 78.000 C 336.000 77.908,336.225 77.833,336.500 77.833 C 336.775 77.833,337.000 77.768,337.000 77.689 C 337.000 77.609,337.317 77.501,337.705 77.449 C 338.092 77.397,338.436 77.275,338.469 77.177 C 338.501 77.080,338.672 77.000,338.847 77.000 C 339.023 77.000,339.167 76.925,339.167 76.833 C 339.167 76.742,339.317 76.667,339.500 76.667 C 339.683 76.667,339.833 76.592,339.833 76.500 C 339.833 76.408,339.983 76.333,340.167 76.333 C 340.350 76.333,340.500 76.258,340.500 76.167 C 340.500 76.075,340.650 76.000,340.833 76.000 C 341.017 76.000,341.167 75.925,341.167 75.833 C 341.167 75.742,341.279 75.667,341.417 75.667 C 341.554 75.667,341.667 75.592,341.667 75.500 C 341.667 75.408,341.787 75.333,341.933 75.333 C 342.080 75.333,342.410 75.108,342.667 74.833 C 342.924 74.558,343.250 74.333,343.393 74.333 C 343.535 74.333,343.839 74.146,344.068 73.917 C 344.297 73.688,344.601 73.500,344.742 73.500 C 344.884 73.500,345.000 73.426,345.000 73.336 C 345.000 73.246,345.563 72.610,346.250 71.922 C 346.938 71.235,347.500 70.630,347.500 70.578 C 347.500 70.527,347.688 70.297,347.917 70.068 C 348.146 69.839,348.333 69.521,348.333 69.363 C 348.333 69.204,348.483 68.965,348.667 68.833 C 348.850 68.701,349.000 68.476,349.000 68.333 C 349.000 68.190,349.150 67.965,349.333 67.833 C 349.517 67.701,349.667 67.497,349.667 67.380 C 349.667 67.263,349.742 67.167,349.833 67.167 C 349.925 67.167,350.000 67.017,350.000 66.833 C 350.000 66.650,350.075 66.500,350.167 66.500 C 350.258 66.500,350.333 66.350,350.333 66.167 C 350.333 65.983,350.408 65.833,350.500 65.833 C 350.592 65.833,350.667 65.683,350.667 65.500 C 350.667 65.317,350.742 65.167,350.833 65.167 C 350.925 65.167,351.000 64.942,351.000 64.667 C 351.000 64.392,351.075 64.167,351.167 64.167 C 351.258 64.167,351.333 63.985,351.333 63.764 C 351.333 63.542,351.406 63.336,351.495 63.306 C 351.585 63.275,351.708 62.706,351.769 62.042 C 351.831 61.377,351.945 60.833,352.024 60.833 C 352.102 60.833,352.167 60.383,352.167 59.833 C 352.167 59.278,352.241 58.833,352.333 58.833 C 352.439 58.833,352.500 57.500,352.500 55.167 C 352.500 52.833,352.439 51.500,352.333 51.500 C 352.242 51.500,352.167 51.087,352.167 50.583 C 352.167 50.079,352.103 49.667,352.024 49.667 C 351.946 49.667,351.836 49.124,351.781 48.460 C 351.725 47.797,351.602 47.228,351.506 47.197 C 351.411 47.165,351.333 46.920,351.333 46.653 C 351.333 46.385,351.258 46.167,351.167 46.167 C 351.075 46.167,351.000 46.017,351.000 45.833 C 351.000 45.650,350.925 45.500,350.833 45.500 C 350.742 45.500,350.667 45.275,350.667 45.000 C 350.667 44.725,350.592 44.500,350.500 44.500 C 350.408 44.500,350.333 44.387,350.333 44.250 C 350.333 44.112,350.258 44.000,350.167 44.000 C 350.075 44.000,350.000 43.850,350.000 43.667 C 350.000 43.483,349.925 43.333,349.833 43.333 C 349.742 43.333,349.667 43.200,349.667 43.037 C 349.667 42.874,349.517 42.632,349.333 42.500 C 349.150 42.368,349.000 42.143,349.000 42.000 C 349.000 41.857,348.850 41.632,348.667 41.500 C 348.483 41.368,348.333 41.166,348.333 41.052 C 348.333 40.938,348.071 40.582,347.750 40.261 C 347.429 39.940,347.167 39.594,347.167 39.492 C 347.167 39.251,345.156 37.333,344.902 37.333 C 344.850 37.333,344.519 37.033,344.167 36.667 C 343.814 36.300,343.424 36.000,343.300 36.000 C 343.175 36.000,342.965 35.850,342.833 35.667 C 342.701 35.483,342.476 35.333,342.333 35.333 C 342.190 35.333,341.966 35.184,341.834 35.001 C 341.702 34.818,341.348 34.622,341.047 34.566 C 340.746 34.509,340.500 34.396,340.500 34.315 C 340.500 34.233,340.350 34.167,340.167 34.167 C 339.983 34.167,339.833 34.092,339.833 34.000 C 339.833 33.908,339.683 33.833,339.500 33.833 C 339.317 33.833,339.167 33.758,339.167 33.667 C 339.167 33.575,339.017 33.500,338.833 33.500 C 338.650 33.500,338.500 33.425,338.500 33.333 C 338.500 33.242,338.387 33.167,338.250 33.167 C 338.112 33.167,338.000 33.092,338.000 33.000 C 338.000 32.908,337.775 32.833,337.500 32.833 C 337.225 32.833,337.000 32.758,337.000 32.667 C 337.000 32.575,336.775 32.500,336.500 32.500 C 336.225 32.500,336.000 32.425,336.000 32.333 C 336.000 32.242,335.775 32.167,335.500 32.167 C 335.225 32.167,335.000 32.092,335.000 32.000 C 335.000 31.908,334.744 31.833,334.431 31.833 C 334.117 31.833,333.836 31.763,333.806 31.677 C 333.775 31.591,332.906 31.468,331.875 31.403 C 330.844 31.339,330.000 31.222,330.000 31.143 C 330.000 31.064,323.775 31.000,316.167 31.000 L 302.333 31.000 302.333 55.250 M149.667 42.167 C 149.667 42.259,150.111 42.333,150.667 42.333 C 151.222 42.333,151.667 42.407,151.667 42.500 C 151.667 42.592,151.929 42.667,152.250 42.667 C 152.571 42.667,152.833 42.742,152.833 42.833 C 152.833 42.925,152.983 43.000,153.167 43.000 C 153.350 43.000,153.500 43.075,153.500 43.167 C 153.500 43.258,153.613 43.333,153.752 43.333 C 154.077 43.333,155.667 44.927,155.667 45.252 C 155.667 45.388,155.742 45.500,155.833 45.500 C 155.925 45.500,156.000 45.650,156.000 45.833 C 156.000 46.017,156.075 46.167,156.167 46.167 C 156.258 46.167,156.333 46.392,156.333 46.667 C 156.333 46.942,156.408 47.167,156.500 47.167 C 156.601 47.167,156.667 47.917,156.667 49.083 C 156.667 50.250,156.601 51.000,156.500 51.000 C 156.408 51.000,156.333 51.188,156.333 51.417 C 156.333 51.646,156.258 51.833,156.167 51.833 C 156.075 51.833,156.000 51.967,156.000 52.130 C 156.000 52.293,155.850 52.535,155.667 52.667 C 155.483 52.799,155.333 53.040,155.333 53.203 C 155.333 53.367,155.263 53.500,155.178 53.500 C 155.092 53.500,154.975 53.650,154.917 53.833 C 154.858 54.017,154.671 54.167,154.501 54.167 C 154.330 54.167,154.078 54.279,153.940 54.417 C 153.803 54.554,153.573 54.667,153.429 54.667 C 153.285 54.667,153.167 54.742,153.167 54.833 C 153.167 54.925,152.942 55.000,152.667 55.000 C 152.392 55.000,152.167 55.075,152.167 55.167 C 152.167 55.258,151.829 55.333,151.417 55.333 C 151.004 55.333,150.667 55.408,150.667 55.500 C 150.667 55.607,149.028 55.667,146.083 55.667 L 141.500 55.667 141.500 48.833 L 141.500 42.000 145.583 42.000 C 148.194 42.000,149.667 42.060,149.667 42.167 M30.000 42.500 C 30.000 42.592,30.300 42.667,30.667 42.667 C 31.033 42.667,31.333 42.742,31.333 42.833 C 31.333 42.925,31.596 43.000,31.917 43.000 C 32.237 43.000,32.500 43.075,32.500 43.167 C 32.500 43.258,32.650 43.333,32.833 43.333 C 33.017 43.333,33.167 43.408,33.167 43.500 C 33.167 43.592,33.317 43.667,33.500 43.667 C 33.683 43.667,33.833 43.742,33.833 43.833 C 33.833 43.925,33.983 44.000,34.167 44.000 C 34.350 44.000,34.500 44.067,34.500 44.149 C 34.500 44.230,34.688 44.344,34.917 44.402 C 35.146 44.459,35.333 44.580,35.333 44.670 C 35.333 44.760,35.447 44.833,35.586 44.833 C 35.918 44.833,38.333 47.253,38.333 47.586 C 38.333 47.728,38.446 47.887,38.583 47.940 C 38.721 47.992,38.833 48.178,38.833 48.351 C 38.833 48.525,38.908 48.667,39.000 48.667 C 39.092 48.667,39.167 48.817,39.167 49.000 C 39.167 49.183,39.242 49.333,39.333 49.333 C 39.425 49.333,39.500 49.558,39.500 49.833 C 39.500 50.108,39.575 50.333,39.667 50.333 C 39.758 50.333,39.833 50.521,39.833 50.750 C 39.833 50.979,39.908 51.167,40.000 51.167 C 40.092 51.167,40.167 51.542,40.167 52.000 C 40.167 52.458,40.242 52.833,40.333 52.833 C 40.437 52.833,40.500 53.750,40.500 55.250 C 40.500 56.750,40.437 57.667,40.333 57.667 C 40.242 57.667,40.167 58.004,40.167 58.417 C 40.167 58.829,40.092 59.167,40.000 59.167 C 39.908 59.167,39.833 59.392,39.833 59.667 C 39.833 59.942,39.758 60.167,39.667 60.167 C 39.575 60.167,39.500 60.354,39.500 60.583 C 39.500 60.813,39.425 61.000,39.333 61.000 C 39.242 61.000,39.167 61.150,39.167 61.333 C 39.167 61.517,39.092 61.667,39.000 61.667 C 38.908 61.667,38.833 61.785,38.833 61.929 C 38.833 62.073,38.721 62.303,38.583 62.440 C 38.446 62.578,38.330 62.816,38.326 62.970 C 38.321 63.124,38.018 63.512,37.651 63.833 C 37.285 64.154,36.653 64.735,36.247 65.125 C 35.841 65.515,35.394 65.833,35.254 65.833 C 35.114 65.833,35.000 65.908,35.000 66.000 C 35.000 66.092,34.904 66.167,34.787 66.167 C 34.670 66.167,34.465 66.317,34.333 66.500 C 34.192 66.696,33.902 66.833,33.630 66.833 C 33.375 66.833,33.167 66.908,33.167 67.000 C 33.167 67.092,33.023 67.167,32.847 67.167 C 32.672 67.167,32.502 67.245,32.470 67.340 C 32.438 67.435,31.870 67.558,31.206 67.614 C 30.543 67.670,30.000 67.779,30.000 67.858 C 30.000 67.936,27.488 68.000,24.417 68.000 L 18.833 68.000 18.833 55.167 L 18.833 42.333 24.417 42.333 C 28.028 42.333,30.000 42.392,30.000 42.500 M327.833 42.500 C 327.833 42.592,328.096 42.667,328.417 42.667 C 328.737 42.667,329.000 42.742,329.000 42.833 C 329.000 42.925,329.300 43.000,329.667 43.000 C 330.033 43.000,330.333 43.075,330.333 43.167 C 330.333 43.258,330.483 43.333,330.667 43.333 C 330.850 43.333,331.000 43.408,331.000 43.500 C 331.000 43.592,331.150 43.667,331.333 43.667 C 331.517 43.667,331.667 43.742,331.667 43.833 C 331.667 43.925,331.779 44.000,331.917 44.000 C 332.054 44.000,332.167 44.075,332.167 44.167 C 332.167 44.258,332.311 44.333,332.488 44.333 C 332.665 44.333,332.922 44.446,333.060 44.583 C 333.197 44.721,333.409 44.837,333.530 44.841 C 333.651 44.845,334.012 45.148,334.333 45.515 C 334.654 45.881,335.160 46.437,335.458 46.751 C 335.756 47.065,336.000 47.432,336.000 47.567 C 336.000 47.701,336.150 47.858,336.333 47.917 C 336.517 47.975,336.667 48.167,336.667 48.345 C 336.667 48.522,336.742 48.667,336.833 48.667 C 336.925 48.667,337.000 48.817,337.000 49.000 C 337.000 49.183,337.075 49.333,337.167 49.333 C 337.258 49.333,337.333 49.558,337.333 49.833 C 337.333 50.108,337.408 50.333,337.500 50.333 C 337.592 50.333,337.667 50.521,337.667 50.750 C 337.667 50.979,337.742 51.167,337.833 51.167 C 337.925 51.167,338.000 51.542,338.000 52.000 C 338.000 52.458,338.075 52.833,338.167 52.833 C 338.270 52.833,338.333 53.750,338.333 55.250 C 338.333 56.750,338.270 57.667,338.167 57.667 C 338.075 57.667,338.000 58.004,338.000 58.417 C 338.000 58.829,337.925 59.167,337.833 59.167 C 337.742 59.167,337.667 59.392,337.667 59.667 C 337.667 59.942,337.592 60.167,337.500 60.167 C 337.408 60.167,337.333 60.354,337.333 60.583 C 337.333 60.813,337.258 61.000,337.167 61.000 C 337.075 61.000,337.000 61.150,337.000 61.333 C 337.000 61.517,336.925 61.667,336.833 61.667 C 336.742 61.667,336.667 61.800,336.667 61.963 C 336.667 62.126,336.517 62.368,336.333 62.500 C 336.150 62.632,336.000 62.839,336.000 62.959 C 336.000 63.266,333.398 65.833,333.087 65.833 C 332.948 65.833,332.833 65.908,332.833 66.000 C 332.833 66.092,332.700 66.167,332.537 66.167 C 332.374 66.167,332.132 66.317,332.000 66.500 C 331.868 66.683,331.589 66.833,331.380 66.833 C 331.171 66.833,331.000 66.908,331.000 67.000 C 331.000 67.092,330.856 67.167,330.681 67.167 C 330.505 67.167,330.336 67.240,330.306 67.329 C 330.275 67.418,329.706 67.541,329.042 67.603 C 328.377 67.664,327.833 67.779,327.833 67.857 C 327.833 67.936,325.321 68.000,322.250 68.000 L 316.667 68.000 316.667 55.167 L 316.667 42.333 322.250 42.333 C 325.861 42.333,327.833 42.392,327.833 42.500 M271.333 46.000 C 271.333 46.275,271.408 46.500,271.500 46.500 C 271.592 46.500,271.667 46.631,271.668 46.792 C 271.668 46.952,271.781 47.298,271.918 47.561 C 272.055 47.823,272.167 48.180,272.167 48.352 C 272.167 48.525,272.242 48.667,272.333 48.667 C 272.425 48.667,272.500 48.817,272.500 49.000 C 272.500 49.183,272.575 49.333,272.667 49.333 C 272.758 49.333,272.833 49.558,272.833 49.833 C 272.833 50.108,272.908 50.333,273.000 50.333 C 273.092 50.333,273.167 50.483,273.167 50.667 C 273.167 50.850,273.242 51.000,273.333 51.000 C 273.425 51.000,273.500 51.188,273.500 51.417 C 273.500 51.646,273.575 51.833,273.667 51.833 C 273.758 51.833,273.833 51.983,273.833 52.167 C 273.833 52.350,273.908 52.500,274.000 52.500 C 274.092 52.500,274.167 52.725,274.167 53.000 C 274.167 53.275,274.242 53.500,274.333 53.500 C 274.425 53.500,274.500 53.650,274.500 53.833 C 274.500 54.017,274.566 54.167,274.648 54.167 C 274.729 54.167,274.846 54.504,274.908 54.917 C 274.970 55.329,275.091 55.667,275.177 55.667 C 275.263 55.667,275.333 55.892,275.333 56.167 C 275.333 56.442,275.408 56.667,275.500 56.667 C 275.592 56.667,275.667 56.817,275.667 57.000 C 275.667 57.183,275.742 57.333,275.833 57.333 C 275.925 57.333,276.000 57.521,276.000 57.750 C 276.000 57.979,276.075 58.167,276.167 58.167 C 276.258 58.167,276.333 58.317,276.333 58.500 C 276.333 58.683,276.408 58.833,276.500 58.833 C 276.592 58.833,276.667 58.983,276.667 59.167 C 276.667 59.493,276.556 59.500,271.083 59.500 L 265.500 59.500 265.500 59.000 C 265.500 58.725,265.575 58.500,265.667 58.500 C 265.758 58.500,265.833 58.350,265.833 58.167 C 265.833 57.983,265.908 57.833,266.000 57.833 C 266.092 57.833,266.167 57.646,266.167 57.417 C 266.167 57.188,266.242 57.000,266.333 57.000 C 266.425 57.000,266.500 56.850,266.500 56.667 C 266.500 56.483,266.575 56.333,266.667 56.333 C 266.758 56.333,266.833 56.108,266.833 55.833 C 266.833 55.558,266.908 55.333,267.000 55.333 C 267.092 55.333,267.167 55.183,267.167 55.000 C 267.167 54.817,267.242 54.667,267.333 54.667 C 267.425 54.667,267.500 54.479,267.500 54.250 C 267.500 54.021,267.575 53.833,267.667 53.833 C 267.758 53.833,267.833 53.683,267.833 53.500 C 267.833 53.317,267.899 53.167,267.979 53.167 C 268.058 53.167,268.173 52.792,268.234 52.333 C 268.295 51.875,268.417 51.500,268.506 51.500 C 268.594 51.500,268.667 51.313,268.667 51.083 C 268.667 50.854,268.742 50.667,268.833 50.667 C 268.925 50.667,269.000 50.517,269.000 50.333 C 269.000 50.150,269.075 50.000,269.167 50.000 C 269.258 50.000,269.333 49.775,269.333 49.500 C 269.333 49.225,269.408 49.000,269.500 49.000 C 269.592 49.000,269.667 48.850,269.667 48.667 C 269.667 48.483,269.742 48.333,269.833 48.333 C 269.925 48.333,270.000 48.146,270.000 47.917 C 270.000 47.688,270.075 47.500,270.167 47.500 C 270.258 47.500,270.333 47.350,270.333 47.167 C 270.333 46.983,270.408 46.833,270.500 46.833 C 270.592 46.833,270.667 46.643,270.667 46.410 C 270.667 45.999,270.954 45.519,271.208 45.506 C 271.277 45.503,271.333 45.725,271.333 46.000 " stroke="none" fill="#1c1c1c" fill-rule="evenodd"></path></g></svg>